<svg id="Layer_1" data-name="Layer 1" xmlns="http://www.w3.org/2000/svg" width="24" height="24" viewBox="0 0 24 24">
  <defs>
    <style>
      .cls-1, .cls-2, .cls-3 {
        fill: none;
        stroke: #000;
      }

      .cls-1, .cls-2 {
        stroke-linecap: round;
      }

      .cls-1 {
        stroke-linejoin: round;
      }

      .cls-2, .cls-3 {
        stroke-miterlimit: 10;
      }
    </style>
  </defs>
  <g>
    <g>
      <rect class="cls-1" x="10.4" y="2.7" width="10.3" height="16.53" rx="0.6"/>
      <rect class="cls-1" x="9.5" y="19.2" width="12.1" height="2.08" rx="0.7"/>
      <line class="cls-1" x1="4" y1="19.2" x2="4" y2="10.7"/>
      <path class="cls-1" d="M10.3,5.9H8.7A1.2,1.2,0,0,0,7.5,7.1V19.2"/>
      <path class="cls-1" d="M3.4,10.7H4.5c.2,0,.3-.1.3-.2v0c0,.1-.1.2-.3.2H3.4l-.2-.2V7.7l-2.1-2c-.1-.1-.1-.3,0-.3l.8-.8h.3L4.8,7.2"/>
      <path class="cls-1" d="M7.5,19.2a1.7,1.7,0,0,1-1.8,1.7A1.7,1.7,0,0,1,4,19.2"/>
    </g>
    <g>
      <line class="cls-2" x1="12.8" y1="5.9" x2="18.3" y2="5.9"/>
      <line class="cls-2" x1="12.8" y1="8" x2="18.3" y2="8"/>
      <line class="cls-2" x1="12.8" y1="10.8" x2="16.7" y2="14.7"/>
      <path class="cls-3" d="M14.3,5.9a2.5,2.5,0,0,1,2.4,2.5h0a2.4,2.4,0,0,1-2.4,2.4H12.8"/>
    </g>
  </g>
</svg>
