<svg id="Layer_1" data-name="Layer 1" xmlns="http://www.w3.org/2000/svg" width="24" height="24" viewBox="0 0 24 24">
  <defs>
    <style>
      .cls-1, .cls-2, .cls-3 {
        fill: none;
        stroke: #000;
      }

      .cls-1, .cls-3 {
        stroke-linecap: round;
      }

      .cls-1 {
        stroke-linejoin: round;
      }

      .cls-2, .cls-3 {
        stroke-miterlimit: 10;
      }
    </style>
  </defs>
  <g>
    <path class="cls-1" d="M19.6,18.5v2.1a2.7,2.7,0,0,1-2.7,2.7H4.2a2.7,2.7,0,0,0,2.7-2.7V18.5Z"/>
    <line class="cls-1" x1="16.9" y1="15.4" x2="16.9" y2="18.5"/>
    <path class="cls-1" d="M4.2,23.3a2.6,2.6,0,0,1-1.9-.8,2.6,2.6,0,0,1-.8-1.9V1.3H16.9V3.8"/>
    <g>
      <path class="cls-2" d="M11.5,7.1a5.6,5.6,0,0,1,5.2-3.3,5.8,5.8,0,1,1,0,11.6,5.7,5.7,0,0,1-5.5-4"/>
      <g>
        <line class="cls-3" x1="14.6" y1="6.5" x2="18.8" y2="6.5"/>
        <line class="cls-3" x1="14.6" y1="8.2" x2="18.8" y2="8.2"/>
        <line class="cls-3" x1="14.6" y1="10.3" x2="17.6" y2="13.3"/>
        <path class="cls-2" d="M15.8,6.5a1.9,1.9,0,0,1,1.8,1.9h0a1.8,1.8,0,0,1-1.8,1.9H14.6"/>
      </g>
      <line class="cls-3" x1="10.2" y1="7.1" x2="12" y2="7.1"/>
      <line class="cls-3" x1="6.9" y1="7.1" x2="8.3" y2="7.1"/>
      <line class="cls-3" x1="6" y1="9.2" x2="11.8" y2="9.2"/>
      <line class="cls-3" x1="7.6" y1="11.4" x2="11.8" y2="11.4"/>
    </g>
  </g>
</svg>
