<svg id="Layer_1" data-name="Layer 1" xmlns="http://www.w3.org/2000/svg" width="24" height="24" viewBox="0 0 24 24">
  <defs>
    <style>
      .cls-1 {
        fill: none;
        stroke: #000;
        stroke-linecap: round;
        stroke-linejoin: round;
      }
    </style>
  </defs>
  <g>
    <circle id="Ellipse_4" data-name="Ellipse 4" class="cls-1" cx="12" cy="8.5" r="2.5"/>
    <path id="Ellipse_4-2" data-name="Ellipse 4" class="cls-1" d="M6.3,18A5.6,5.6,0,0,1,12,12.4,5.6,5.6,0,0,1,17.7,18Z"/>
    <circle id="Ellipse_4-3" data-name="Ellipse 4" class="cls-1" cx="5.2" cy="10.7" r="1.8"/>
    <path id="Ellipse_4-4" data-name="Ellipse 4" class="cls-1" d="M6.3,18H1a4.1,4.1,0,0,1,4.2-4.1,3.9,3.9,0,0,1,2.3.7"/>
    <circle id="Ellipse_4-5" data-name="Ellipse 4" class="cls-1" cx="18.8" cy="10.7" r="1.8"/>
    <path id="Ellipse_4-6" data-name="Ellipse 4" class="cls-1" d="M17.7,18H23a4.1,4.1,0,0,0-4.2-4.1,3.9,3.9,0,0,0-2.3.7"/>
  </g>
</svg>
