<svg id="Layer_1" data-name="Layer 1" xmlns="http://www.w3.org/2000/svg" width="24" height="24" viewBox="0 0 24 24">
  <defs>
    <style>
      .cls-1 {
        fill: none;
        stroke: #000;
        stroke-linecap: round;
        stroke-linejoin: round;
      }
    </style>
  </defs>
  <g>
    <rect class="cls-1" x="8.1" y="3.6" width="8" height="1.58" rx="0.8"/>
    <line class="cls-1" x1="10.3" y1="9.2" x2="10.3" y2="10.8"/>
    <line class="cls-1" x1="13.6" y1="9.2" x2="13.6" y2="10.8"/>
    <circle class="cls-1" cx="11.9" cy="13.3" r="2.8"/>
    <rect class="cls-1" x="9.7" y="7.7" width="4.6" height="1.5" rx="0.7"/>
    <g>
      <rect class="cls-1" x="18.5" y="17.8" width="4.6" height="1.5" rx="0.7"/>
      <rect class="cls-1" x="15.2" y="12.4" width="4.6" height="1.5" rx="0.7" transform="translate(4.3 30.7) rotate(-90)"/>
      <path class="cls-1" d="M18.2,12H19a3.1,3.1,0,0,1,3.1,3.1v2.7"/>
      <line class="cls-1" x1="16.8" y1="12" x2="14.7" y2="12"/>
      <path class="cls-1" d="M18.2,14.5h.5a.9.9,0,0,1,.9.9v2.4"/>
      <line class="cls-1" x1="16.8" y1="14.5" x2="14.6" y2="14.5"/>
    </g>
    <g>
      <rect class="cls-1" x="0.6" y="17.8" width="4.6" height="1.5" rx="0.7" transform="translate(5.9 37.1) rotate(180)"/>
      <rect class="cls-1" x="4" y="12.4" width="4.6" height="1.5" rx="0.7" transform="translate(-6.9 19.4) rotate(-90)"/>
      <path class="cls-1" d="M5.5,12H4.8a3.1,3.1,0,0,0-3.1,3.1v2.7"/>
      <line class="cls-1" x1="7" y1="12" x2="9.1" y2="12"/>
      <path class="cls-1" d="M5.5,14.5H5.1a1,1,0,0,0-1,.9v2.4"/>
      <line class="cls-1" x1="7" y1="14.5" x2="9.2" y2="14.5"/>
    </g>
    <line class="cls-1" x1="12" y1="7.7" x2="12" y2="5.2"/>
  </g>
</svg>
