<svg id="Layer_1" data-name="Layer 1" xmlns="http://www.w3.org/2000/svg" width="24" height="24" viewBox="0 0 24 24">
  <defs>
    <style>
      .cls-1 {
        fill: none;
        stroke: #000;
        stroke-linecap: round;
        stroke-linejoin: round;
      }
    </style>
  </defs>
  <g>
    <path class="cls-1" d="M18.4.8s-.8,8-5.1,12a1.8,1.8,0,0,1-2.4,0C6.5,8.8,5.7.8,5.7.8Z"/>
    <line class="cls-1" x1="12.1" y1="13.3" x2="12.1" y2="18.7"/>
    <rect class="cls-1" x="6.8" y="18.7" width="11.1" height="2.04" rx="0.8"/>
    <rect class="cls-1" x="4.9" y="20.7" width="14.9" height="2.47" rx="1"/>
    <polygon class="cls-1" points="12.1 2.7 12.9 4.3 14.7 4.6 13.4 5.9 13.7 7.7 12.1 6.9 10.4 7.7 10.7 5.9 9.4 4.6 11.3 4.3 12.1 2.7"/>
    <path class="cls-1" d="M18.1,2.9h2.5s-.6,5.4-5,7"/>
    <path class="cls-1" d="M5.9,2.9H3.4s.6,5.4,5,7"/>
  </g>
</svg>
