<svg id="Layer_1" data-name="Layer 1" xmlns="http://www.w3.org/2000/svg" width="24" height="24" viewBox="0 0 24 24">
  <defs>
    <style>
      .cls-1 {
        fill: none;
        stroke: #000;
        stroke-linecap: round;
        stroke-linejoin: round;
      }
    </style>
  </defs>
  <g>
    <g>
      <path class="cls-1" d="M17.4,14.7v3.4A1.8,1.8,0,0,1,15.6,20H8.4a1.8,1.8,0,0,1-1.8-1.8V14a1.8,1.8,0,0,1,1.8-1.8h3.9l-.6,3.5,3.6-1.9h.2Z"/>
      <path class="cls-1" d="M12.4,11.5v.7H8.5v-.7c0-.6.3-1.1.8-1.1h1.9Z"/>
      <g>
        <rect class="cls-1" x="20.7" y="12.2" width="2.2" height="7.8" rx="0.8"/>
        <polygon class="cls-1" points="20.7 14 20.7 18.1 17.4 18.1 17.4 14.7 19.3 15.7 19.2 14 20.7 14"/>
      </g>
      <g>
        <rect class="cls-1" x="1.1" y="12.2" width="2.2" height="7.8" rx="0.8" transform="translate(4.4 32.2) rotate(180)"/>
        <rect class="cls-1" x="3.3" y="14.1" width="3.3" height="4.09" transform="translate(9.9 32.2) rotate(-180)"/>
      </g>
    </g>
    <polygon class="cls-1" points="19 14 19.3 15.7 17.4 14.7 15.5 13.7 15.3 13.8 11.7 15.7 12.3 12.2 12.4 11.5 11.4 10.4 11.1 10.2 9.3 8.5 13.6 7.8 15.5 4 17.4 7.8 21.7 8.5 18.6 11.5 19 14"/>
  </g>
</svg>
