<svg id="Layer_1" data-name="Layer 1" xmlns="http://www.w3.org/2000/svg" width="24" height="24" viewBox="0 0 24 24">
  <defs>
    <style>
      .cls-1 {
        fill: none;
        stroke: #000;
        stroke-linecap: round;
        stroke-linejoin: round;
      }
    </style>
  </defs>
  <path id="Path_33" data-name="Path 33" class="cls-1" d="M2.2,4.7c-1.4,1.4,1.1,6.8,6,11.4s10.3,6.7,11.6,5.3l2-2a1.7,1.7,0,0,0-.1-2.3l-2.2-2a1.3,1.3,0,0,0-2-.2l-1.2,1.3a1,1,0,0,1-1.2.3,13.7,13.7,0,0,1-4.5-3A12.7,12.7,0,0,1,7.5,9.3,1.2,1.2,0,0,1,7.7,8L8.9,6.7c.6-.6.3-1.4-.3-2.1l-2.2-2a1.7,1.7,0,0,0-2.3,0h0Z"/>
</svg>
