<svg id="Layer_1" data-name="Layer 1" xmlns="http://www.w3.org/2000/svg" width="24" height="24" viewBox="0 0 24 24">
  <defs>
    <style>
      .cls-1 {
        fill: none;
        stroke: #000;
        stroke-linecap: round;
        stroke-linejoin: round;
      }
    </style>
  </defs>
  <g>
    <rect class="cls-1" x="6" y="10.5" width="16.9" height="1.57" rx="0.8"/>
    <path class="cls-1" d="M6.8,10.3a7.7,7.7,0,0,1,15.3,0"/>
    <g id="Group_36" data-name="Group 36">
      <rect id="Rectangle_18" data-name="Rectangle 18" class="cls-1" x="1.1" y="12.5" width="3.4" height="6.67" rx="0.3" transform="translate(-0.2 0) rotate(-0.7)"/>
      <path class="cls-1" d="M4.5,13.2A4.2,4.2,0,0,1,9,12.8c1.2.7,3.6.6,4.4.6l1.2.3a1.9,1.9,0,0,1,.9,1.6l-4.6.2"/>
      <path class="cls-1" d="M15.3,14.7,18.7,13a1.6,1.6,0,0,1,2,.6l-6.4,4.5a4.3,4.3,0,0,1-3.2.6L6.3,17.5a2,2,0,0,0-1,.1l-.7.5"/>
    </g>
  </g>
</svg>
