<svg id="Layer_1" data-name="Layer 1" xmlns="http://www.w3.org/2000/svg" width="24" height="24" viewBox="0 0 24 24">
  <defs>
    <style>
      .cls-1 {
        fill: none;
        stroke: #000;
        stroke-linecap: round;
        stroke-linejoin: round;
      }
    </style>
  </defs>
  <g>
    <g>
      <rect class="cls-1" x="4.8" y="14.3" width="14.1" height="1.3" rx="0.6"/>
      <path class="cls-1" d="M18.2,14.2a6.4,6.4,0,0,0-.6-2.8"/>
      <path class="cls-1" d="M5.5,14.2a6.3,6.3,0,0,1,6.3-6.4,6.4,6.4,0,0,1,2,.3"/>
      <g id="Group_36" data-name="Group 36">
        <rect id="Rectangle_18" data-name="Rectangle 18" class="cls-1" x="0.7" y="15.9" width="2.9" height="5.55" rx="0.3" transform="translate(-0.2 0) rotate(-0.7)"/>
        <path class="cls-1" d="M3.6,16.5a3.4,3.4,0,0,1,3.7-.3c1,.6,3,.5,3.7.5l.9.2a2.4,2.4,0,0,1,.8,1.4H8.9"/>
        <path class="cls-1" d="M12.6,17.8l2.7-1.4a1.3,1.3,0,0,1,1.7.4l-5.3,3.8a3.7,3.7,0,0,1-2.6.5l-4-1a1.6,1.6,0,0,0-.9.1l-.6.4"/>
      </g>
    </g>
    <polygon class="cls-1" points="20.5 9.2 21.2 13.1 17.8 11.3 17.6 11.4 14.3 13.1 15 9.2 13.8 8.1 12.2 6.5 16 6 17.8 2.5 19.5 6 23.3 6.5 20.5 9.2"/>
  </g>
</svg>
