<svg id="Layer_1" data-name="Layer 1" xmlns="http://www.w3.org/2000/svg" width="24" height="24" viewBox="0 0 24 24">
  <defs>
    <style>
      .cls-1 {
        fill: none;
        stroke: #000;
        stroke-linecap: round;
        stroke-linejoin: round;
      }
    </style>
  </defs>
  <g>
    <g>
      <path class="cls-1" d="M17.8,10.4V20.5a.6.6,0,0,1-.6.6H9.4a.6.6,0,0,1-.6-.6V7.2a.6.6,0,0,1,.6-.6H13l.4.4,1.2,1.2-.2,1-.5,3,2.7-1.4.7-.4h.5Z"/>
      <rect class="cls-1" x="8" y="21.1" width="10.5" height="1.82" rx="0.7"/>
      <polygon class="cls-1" points="20.4 8.2 21.1 12.2 17.8 10.4 17.5 10.3 17.3 10.4 16.6 10.8 13.9 12.2 14.4 9.2 14.6 8.2 13.4 7 13 6.6 11.7 5.3 15.7 4.8 17.5 1.1 19.3 4.8 23.3 5.3 20.4 8.2"/>
      <path class="cls-1" d="M16.6,10.8v2.9a.6.6,0,0,1-.6.6H10.6a.6.6,0,0,1-.6-.6V9.8a.6.6,0,0,1,.6-.6h3.8l-.5,3Z"/>
      <line class="cls-1" x1="3.2" y1="21.1" x2="3.2" y2="13.7"/>
      <path class="cls-1" d="M8.7,9.5H7.3a1.1,1.1,0,0,0-1.1,1V21"/>
      <path class="cls-1" d="M2.7,13.7h1l.2-.2v0l-.2.2h-1l-.2-.2V11L.7,9.3A.2.2,0,0,1,.7,9l.7-.7a.2.2,0,0,1,.3,0l2.2,2.2"/>
      <path class="cls-1" d="M6.2,21.1a1.5,1.5,0,0,1-1.5,1.5,1.5,1.5,0,0,1-1.5-1.5"/>
    </g>
    <g>
      <path class="cls-1" d="M13.5,19.1s.8-2-1.8-2.5c0,0-.2,2.6,1.8,2.5"/>
      <path class="cls-1" d="M13.1,17.2A2,2,0,0,1,14.9,16s.3,2.2-1.2,2.5"/>
    </g>
  </g>
</svg>
