<svg id="Layer_1" data-name="Layer 1" xmlns="http://www.w3.org/2000/svg" width="24" height="24" viewBox="0 0 24 24">
  <defs>
    <style>
      .cls-1 {
        fill: none;
        stroke: #000;
        stroke-linecap: round;
        stroke-linejoin: round;
      }
    </style>
  </defs>
  <g>
    <g>
      <rect class="cls-1" x="11.1" y="3.5" width="10.3" height="16.53" rx="0.6"/>
      <rect class="cls-1" x="10.2" y="20" width="12.1" height="2.08" rx="0.7"/>
      <rect class="cls-1" x="12.5" y="6.4" width="7.5" height="5.82" rx="0.7"/>
      <line class="cls-1" x1="4.7" y1="20" x2="4.7" y2="11.5"/>
      <path class="cls-1" d="M11,6.7H9.4A1.3,1.3,0,0,0,8.1,8V20"/>
      <path class="cls-1" d="M4.1,11.6H5.2c.1,0,.2-.1.2-.3v0c0,.2-.1.3-.2.3H4.1c-.1,0-.2-.1-.2-.3V8.5l-2.1-2a.2.2,0,0,1,0-.3l.8-.8a.2.2,0,0,1,.3,0L5.4,8"/>
      <path class="cls-1" d="M8.1,20a1.6,1.6,0,0,1-1.7,1.7A1.7,1.7,0,0,1,4.7,20"/>
    </g>
    <g>
      <path class="cls-1" d="M16.5,17.8s.9-2.3-2.1-2.9c0,0-.2,3,2,2.9"/>
      <path class="cls-1" d="M16,15.6a2.2,2.2,0,0,1,2-1.4s.4,2.5-1.3,2.9"/>
    </g>
  </g>
</svg>
