<svg id="Layer_1" data-name="Layer 1" xmlns="http://www.w3.org/2000/svg" width="24" height="24" viewBox="0 0 24 24">
  <defs>
    <style>
      .cls-1 {
        fill: none;
        stroke: #000;
        stroke-linecap: round;
        stroke-linejoin: round;
      }
    </style>
  </defs>
  <g>
    <rect class="cls-1" x="3.9" y="17.5" width="16.2" height="5.13" rx="1"/>
    <line class="cls-1" x1="5.9" y1="22.7" x2="5.9" y2="23.4"/>
    <line class="cls-1" x1="18" y1="22.7" x2="18" y2="23.4"/>
    <g>
      <line class="cls-1" x1="6.3" y1="20.1" x2="9.2" y2="20.1"/>
      <g>
        <line class="cls-1" x1="16.1" y1="20.2" x2="16.3" y2="19.9"/>
        <circle class="cls-1" cx="16.2" cy="20.1" r="1.4"/>
      </g>
    </g>
    <g>
      <path class="cls-1" d="M12.1.5a3.2,3.2,0,0,1,0,2.6,3.7,3.7,0,0,0,.1,2.7"/>
      <path class="cls-1" d="M9.6,2.8a2,2,0,0,1,0,1.7,2.4,2.4,0,0,0,.1,1.7"/>
      <path class="cls-1" d="M14.3,2.8a2,2,0,0,1,0,1.7,2.4,2.4,0,0,0,.1,1.7"/>
    </g>
    <line class="cls-1" x1="5.6" y1="8.5" x2="18.3" y2="8.5"/>
    <path class="cls-1" d="M13.9,10.8v1.6c0,.2-.1.4-.3.4H10.4a.4.4,0,0,1-.4-.4V10.9"/>
    <path class="cls-1" d="M6.4,8.5v5.3a1.4,1.4,0,0,0,1.4,1.4h8.3a1.5,1.5,0,0,0,1.5-1.4V8.5"/>
  </g>
</svg>
