<svg id="Layer_1" data-name="Layer 1" xmlns="http://www.w3.org/2000/svg" width="24" height="24" viewBox="0 0 24 24">
  <defs>
    <style>
      .cls-1 {
        fill: none;
        stroke: #000;
        stroke-linecap: round;
        stroke-linejoin: round;
      }

      .cls-2 {
        font-size: 5.1px;
        font-family: Agrow-Bold, Agrow;
        font-weight: 700;
      }
    </style>
  </defs>
  <g>
    <path class="cls-1" d="M19.6,8.4c0,2.7-3.3,7.2-5.5,9.9S12,20.7,12,20.7s-.9-.9-2.1-2.4S4.4,11.1,4.4,8.4a7.6,7.6,0,0,1,15.2,0Z"/>
    <text class="cls-2" transform="translate(6.6 9.7)">CNG</text>
    <path class="cls-1" d="M19.6,20.7c0,1.4-3.4,2.5-7.6,2.5s-7.6-1.1-7.6-2.5,2.3-2.1,5.5-2.4c1.2,1.5,2.1,2.4,2.1,2.4s.9-.9,2.1-2.4C17.3,18.6,19.6,19.6,19.6,20.7Z"/>
  </g>
</svg>
