<svg id="Layer_1" data-name="Layer 1" xmlns="http://www.w3.org/2000/svg" width="24" height="24" viewBox="0 0 24 24">
  <defs>
    <style>
      .cls-1 {
        fill: none;
        stroke: #000;
        stroke-linecap: round;
        stroke-linejoin: round;
      }
    </style>
  </defs>
  <g>
    <g>
      <circle id="Ellipse_4" data-name="Ellipse 4" class="cls-1" cx="9.9" cy="5.5" r="3.9"/>
      <path class="cls-1" d="M13.8,18.2a4.8,4.8,0,0,0,.7,2.4H.8a8.9,8.9,0,0,1,9.1-8.8,9,9,0,0,1,6.2,2.4A4.5,4.5,0,0,0,13.8,18.2Z"/>
    </g>
    <polyline class="cls-1" points="16.4 18 17.8 19.4 21 16.2"/>
    <path class="cls-1" d="M23,16.8a6.8,6.8,0,0,1,.2,1.4,4.7,4.7,0,0,1-4.7,4.7,4.6,4.6,0,0,1-4-2.3,4.8,4.8,0,0,1-.7-2.4,4.5,4.5,0,0,1,2.3-4,4,4,0,0,1,2.4-.7A4.7,4.7,0,0,1,23,16.8"/>
  </g>
</svg>
