<svg id="Layer_1" data-name="Layer 1" xmlns="http://www.w3.org/2000/svg" width="24" height="24" viewBox="0 0 24 24">
  <defs>
    <style>
      .cls-1 {
        fill: none;
        stroke: #000;
        stroke-linecap: round;
        stroke-linejoin: round;
      }
    </style>
  </defs>
  <g>
    <g id="Group_36" data-name="Group 36">
      <rect id="Rectangle_18" data-name="Rectangle 18" class="cls-1" x="1" y="11.6" width="3.7" height="7.21" rx="0.3" transform="translate(-0.2 0) rotate(-0.7)"/>
      <path class="cls-1" d="M4.7,12.4A4.2,4.2,0,0,1,9.5,12a10.6,10.6,0,0,0,4.8.6,2.1,2.1,0,0,1,1.2.3,2.3,2.3,0,0,1,1,1.8l-4.9.2"/>
      <path class="cls-1" d="M16.4,14,20,12.2a1.7,1.7,0,0,1,2.2.6l-7,4.9a4.2,4.2,0,0,1-3.4.6L6.7,17.1a1.5,1.5,0,0,0-1.1.1l-.8.5"/>
    </g>
    <g>
      <line class="cls-1" x1="17.5" y1="10.7" x2="11.5" y2="10.7"/>
      <path class="cls-1" d="M8.8,10.7H7.7a1,1,0,0,1-1-.9V8.2a1,1,0,0,1,1-.8h.1A1,1,0,0,0,8.7,7l1.4-1.9c.1-.3.5-.4.8-.4h5.5a1.1,1.1,0,0,1,.8.3l2.3,2.4.5.3h2.3a.9.9,0,0,1,.7.8v2.1H20.2"/>
      <path class="cls-1" d="M17.5,10.7A1.3,1.3,0,0,0,18.8,12a1.3,1.3,0,0,0,1.4-1.3,1.4,1.4,0,0,0-1.4-1.4A1.3,1.3,0,0,0,17.5,10.7Z"/>
      <path class="cls-1" d="M8.8,10.7A1.3,1.3,0,0,0,10.2,12a1.3,1.3,0,0,0,1.3-1.3,1.3,1.3,0,0,0-1.3-1.4A1.4,1.4,0,0,0,8.8,10.7Z"/>
      <line class="cls-1" x1="23" y1="9.2" x2="22.1" y2="9.2"/>
      <line class="cls-1" x1="19.3" y1="7.2" x2="8.5" y2="7.2"/>
      <line class="cls-1" x1="13.8" y1="4.7" x2="13.8" y2="7.2"/>
    </g>
  </g>
</svg>
