<svg id="Layer_1" data-name="Layer 1" xmlns="http://www.w3.org/2000/svg" width="24" height="24" viewBox="0 0 24 24">
  <defs>
    <style>
      .cls-1 {
        fill: none;
        stroke: #000;
        stroke-linecap: round;
        stroke-linejoin: round;
      }
    </style>
  </defs>
  <g id="Group_59" data-name="Group 59">
    <g id="Group_60" data-name="Group 60">
      <g id="Group_40-2" data-name="Group 40-2">
        <path id="Path_83" data-name="Path 83" class="cls-1" d="M8.4,7.8H1.8a.6.6,0,0,0-.6.6h0V19.8a.6.6,0,0,0,.6.6l.4-.2L4.3,18a.4.4,0,0,1,.4-.2H15a.6.6,0,0,0,.6-.6h0V13.6"/>
        <path id="Path_32-2" data-name="Path 32-2" class="cls-1" d="M8.4,4.2V13a.6.6,0,0,0,.6.6H19.3l.4.2L21.8,16a.6.6,0,0,0,1-.4V4.2a.6.6,0,0,0-.6-.6H9a.6.6,0,0,0-.6.6Z"/>
      </g>
    </g>
    <path id="Path_84" data-name="Path 84" class="cls-1" d="M15.5,9.2h-.2V8.9l.7-.4c.2,0,.3-.1.4-.3l.3-.4V7.4a1.1,1.1,0,0,0-.3-.8l-.9-.3-.7.2-.6.4h-.1a.2.2,0,0,1-.2-.2h.1A1.7,1.7,0,0,1,15.7,6h.6l.5.3.3.4a1.3,1.3,0,0,1,.1.6,1.3,1.3,0,0,1-.1.6l-.3.5-.5.3-.7.4Z"/>
    <circle class="cls-1" cx="15.6" cy="11.2" r="0.4"/>
  </g>
</svg>
