<?xml version="1.0" encoding="UTF-8"?>
<svg width="24px" height="24px" viewBox="0 0 24 24" version="1.1" xmlns="http://www.w3.org/2000/svg" xmlns:xlink="http://www.w3.org/1999/xlink">
    <title>Burger Menu</title>
    <g id="Page-1" stroke="none" stroke-width="1" fill="none" fill-rule="evenodd">
        <g id="Icon-List" transform="translate(-916.000000, -254.000000)" fill="#333333">
            <g id="Burger-Menu" transform="translate(916.000000, 254.000000)">
                <path d="M21.15,17 C21.619442,17 22,17.380558 22,17.85 L22,18.15 C22,18.619442 21.619442,19 21.15,19 L2.85,19 C2.38055796,19 2,18.619442 2,18.15 L2,17.85 C2,17.380558 2.38055796,17 2.85,17 L21.15,17 Z M21.15,11 C21.619442,11 22,11.380558 22,11.85 L22,12.15 C22,12.619442 21.619442,13 21.15,13 L2.85,13 C2.38055796,13 2,12.619442 2,12.15 L2,11.85 C2,11.380558 2.38055796,11 2.85,11 L21.15,11 Z M21.15,5 C21.619442,5 22,5.38055796 22,5.85 L22,6.15 C22,6.61944204 21.619442,7 21.15,7 L2.85,7 C2.38055796,7 2,6.61944204 2,6.15 L2,5.85 C2,5.38055796 2.38055796,5 2.85,5 L21.15,5 Z" id="Combined-Shape"></path>
            </g>
        </g>
    </g>
</svg>