<svg id="artwork" height="512" viewBox="0 0 64 64" width="512" xmlns="http://www.w3.org/2000/svg"><path d="m42.5 51.5h9v12h-9z" fill="#3e3ef4"/><path d="m60 30.5h-26a3.50424 3.50424 0 0 0 -3.5 3.5v28a1.50008 1.50008 0 0 0 1.5 1.5h7.5v-13.5a1.50008 1.50008 0 0 1 1.5-1.5h12a1.50007 1.50007 0 0 1 1.5 1.5v13.5h7.5a1.50007 1.50007 0 0 0 1.5-1.5v-28a3.50424 3.50424 0 0 0 -3.5-3.5zm-22.3 12a1.5 1.5 0 0 1 -3 0v-6a1.5 1.5 0 0 1 3 0zm7.2 0a1.5 1.5 0 0 1 -3 0v-6a1.5 1.5 0 0 1 3 0zm7.2 0a1.5 1.5 0 0 1 -3 0v-6a1.5 1.5 0 0 1 3 0zm7.2 0a1.5 1.5 0 0 1 -3 0v-6a1.5 1.5 0 0 1 3 0z" fill="#3e3ef4"/><path d="m33.63574.54584-32 7.99989a1.50015 1.50015 0 0 0 -1.13574 1.45505v51.99922a1.50007 1.50007 0 0 0 1.5 1.5h24a1.5 1.5 0 1 0 0-3h-1.5v-9.83331a1.50006 1.50006 0 0 0 -1.5-1.5h-10a1.50007 1.50007 0 0 0 -1.5 1.5v9.83331h-8v-49.32785l29-7.24989v22.07829a1.5 1.5 0 0 0 3 0v-23.99965a1.50075 1.50075 0 0 0 -1.86426-1.45506zm-19.13574 51.62083h7v8.33333h-7z"/><path d="m26 38.61179a1.50008 1.50008 0 0 0 -1.5 1.5v4.55521a1.5 1.5 0 0 0 3 0v-4.55521a1.50007 1.50007 0 0 0 -1.5-1.5z"/><path d="m18 38.61179a1.50008 1.50008 0 0 0 -1.5 1.5v4.55521a1.5 1.5 0 0 0 3 0v-4.55521a1.50007 1.50007 0 0 0 -1.5-1.5z"/><path d="m10 38.61179a1.50008 1.50008 0 0 0 -1.5 1.5v4.55521a1.5 1.5 0 0 0 3 0v-4.55521a1.50007 1.50007 0 0 0 -1.5-1.5z"/><path d="m26 28.05612a1.50008 1.50008 0 0 0 -1.5 1.5v4.55567a1.5 1.5 0 0 0 3 0v-4.55567a1.50007 1.50007 0 0 0 -1.5-1.5z"/><path d="m19.5 29.55612a1.5 1.5 0 0 0 -3 0v4.55567a1.5 1.5 0 0 0 3 0z"/><path d="m11.5 29.55612a1.5 1.5 0 0 0 -3 0v4.55567a1.5 1.5 0 0 0 3 0z"/><path d="m26 17.50046a1.50008 1.50008 0 0 0 -1.5 1.5v4.55566a1.5 1.5 0 0 0 3 0v-4.55566a1.50007 1.50007 0 0 0 -1.5-1.5z"/><path d="m19.5 19.00046a1.5 1.5 0 0 0 -3 0v4.55566a1.5 1.5 0 0 0 3 0z"/><path d="m11.5 19.00046a1.5 1.5 0 0 0 -3 0v4.55566a1.5 1.5 0 0 0 3 0z"/></svg>