<?xml version="1.0" encoding="UTF-8"?>
<svg xmlns="http://www.w3.org/2000/svg" id="artwork" width="512" height="512" viewBox="0 0 64 64"><path d="M37.084,48.5H26.916a1.5,1.5,0,0,1,0-3H37.084a1.5,1.5,0,0,1,0,3Z" style="fill:#3e3ef4"/><path d="M32,15.5a12.99307,12.99307,0,0,0-6.58447,24.19824V42a1.50007,1.50007,0,0,0,1.5,1.5H27.5V30A1.50164,1.50164,0,0,0,26,28.5a1.5,1.5,0,0,1,0-3A4.50491,4.50491,0,0,1,30.5,30V43.5h3V30A4.50491,4.50491,0,0,1,38,25.5a1.5,1.5,0,0,1,0,3A1.50164,1.50164,0,0,0,36.5,30V43.5h.584a1.50007,1.50007,0,0,0,1.5-1.5V39.69824A12.99289,12.99289,0,0,0,32,15.5Z" style="fill:#3e3ef4"/><path d="M63.5,32a11.40477,11.40477,0,0,0-3.6001-8.34521A11.37814,11.37814,0,0,0,60.5,20,11.57745,11.57745,0,0,0,53.16553,9.28369,11.49458,11.49458,0,0,0,32,6.31818,11.49458,11.49458,0,0,0,10.83447,9.28369,11.57745,11.57745,0,0,0,3.5,20a11.37814,11.37814,0,0,0,.6001,3.65479,11.47292,11.47292,0,0,0,0,16.69091A11.37077,11.37077,0,0,0,3.5,44a11.5791,11.5791,0,0,0,7.33447,10.7168A11.49378,11.49378,0,0,0,32,57.67969,11.49378,11.49378,0,0,0,53.16553,54.7168,11.5791,11.5791,0,0,0,60.5,44a11.37077,11.37077,0,0,0-.6001-3.6543A11.40666,11.40666,0,0,0,63.5,32ZM52,43.5a11.3914,11.3914,0,0,0,5.30505-1.29773A8.39075,8.39075,0,0,1,57.5,44a8.5,8.5,0,0,1-14.37939,6.13867,1.49984,1.49984,0,1,0-2.0752,2.166,11.43957,11.43957,0,0,0,8.70648,3.16821A8.49648,8.49648,0,0,1,33.544,52.87109a1.55859,1.55859,0,0,0-3.0879,0A8.49648,8.49648,0,0,1,14.24811,55.4729a11.43993,11.43993,0,0,0,8.70648-3.16821,1.49984,1.49984,0,1,0-2.0752-2.166A8.495,8.495,0,0,1,6.695,42.20227,11.3914,11.3914,0,0,0,12,43.5a1.5,1.5,0,0,0,0-3A8.50777,8.50777,0,0,1,3.5,32a8.41235,8.41235,0,0,1,2.03638-5.49695,11.42315,11.42315,0,0,0,8.89038,4.98279,1.49986,1.49986,0,1,0,.14746-2.99609A8.49171,8.49171,0,0,1,10.548,12.77209a11.45855,11.45855,0,0,0,5.139,8.84168,1.49972,1.49972,0,0,0,1.64844-2.50586A8.50086,8.50086,0,1,1,30.458,11.15234a1.556,1.556,0,0,0,3.084,0,8.50029,8.50029,0,1,1,13.12256,7.95557A1.49972,1.49972,0,0,0,48.313,21.61377a11.45855,11.45855,0,0,0,5.139-8.84168,8.49171,8.49171,0,0,1-4.02619,15.71766,1.49986,1.49986,0,1,0,.14746,2.99609,11.42315,11.42315,0,0,0,8.89038-4.98279A8.41235,8.41235,0,0,1,60.5,32,8.50864,8.50864,0,0,1,52,40.5a1.5,1.5,0,0,0,0,3Z"/></svg>
