<svg id="artwork" height="512" viewBox="0 0 64 64" width="512" xmlns="http://www.w3.org/2000/svg"><path d="m21 .5a20.52325 20.52325 0 0 0 -20.5 20.5v41a1.50008 1.50008 0 0 0 1.5 1.5h38a1.50007 1.50007 0 0 0 1.5-1.5v-41a20.52325 20.52325 0 0 0 -20.5-20.5zm0 3a17.52 17.52 0 0 1 17.5 17.5v.5h-35v-.5a17.52 17.52 0 0 1 17.5-17.5zm17.5 24h-35v-3h35zm-23 33v-15h11v15zm14 0v-15.5a2.50263 2.50263 0 0 0 -2.5-2.5h-12a2.50263 2.50263 0 0 0 -2.5 2.5v15.5h-9v-30h35v30z"/><path d="m16 13.5h3.5v3.5a1.5 1.5 0 0 0 3 0v-3.5h3.5a1.5 1.5 0 0 0 0-3h-3.5v-3.5a1.5 1.5 0 0 0 -3 0v3.5h-3.5a1.5 1.5 0 0 0 0 3z"/><path d="m12 34.5h-4a1.5 1.5 0 0 0 0 3h4a1.5 1.5 0 0 0 0-3z"/><path d="m23 34.5h-4a1.5 1.5 0 0 0 0 3h4a1.5 1.5 0 0 0 0-3z"/><path d="m34 34.5h-4a1.5 1.5 0 0 0 0 3h4a1.5 1.5 0 0 0 0-3z"/><path d="m62.60156 30.626-16-7a1.50071 1.50071 0 0 0 -2.10156 1.374v37a1.50008 1.50008 0 0 0 1.5 1.5h16a1.50007 1.50007 0 0 0 1.5-1.5v-30a1.49916 1.49916 0 0 0 -.89844-1.374zm-4.60156 26.874h-8a1.5 1.5 0 0 1 0-3h8a1.5 1.5 0 0 1 0 3zm0-7h-8a1.5 1.5 0 0 1 0-3h8a1.5 1.5 0 0 1 0 3zm0-7h-8a1.5 1.5 0 0 1 0-3h8a1.5 1.5 0 0 1 0 3zm0-7h-8a1.5 1.5 0 0 1 0-3h8a1.5 1.5 0 0 1 0 3z" fill="#3e3ef4"/></svg>