<?xml version="1.0" encoding="UTF-8"?>
<svg xmlns="http://www.w3.org/2000/svg" id="artwork" width="512" height="512" viewBox="0 0 64 64"><path d="M60,24.5H33.275L29.484,1.753A1.5,1.5,0,0,0,28.005.5h-7a1.5,1.5,0,0,0-1.48,1.253l-2.52,15.123L14.484,1.753A1.5,1.5,0,0,0,13.005.5h-7a1.5,1.5,0,0,0-1.48,1.253L.54,25.668A1.457,1.457,0,0,0,.5,26V62A1.5,1.5,0,0,0,2,63.5H32.311a1.5,1.5,0,1,0,0-3h-4.8V47.005a10.505,10.505,0,1,0-21.01,0V60.5h-3v-33H60a.5.5,0,0,1,.5.5v4.3a1.5,1.5,0,0,0,3,0V28A3.5,3.5,0,0,0,60,24.5ZM18.505,39.651a7.517,7.517,0,0,1,6.005,7.354V60.5H18.505Zm-9,7.354a7.517,7.517,0,0,1,6.005-7.354V60.5H9.5ZM7.275,3.5h4.459l.5,3H6.775Zm-3.5,21,2.5-15h6.459l2.5,15Zm18.5-21h4.459l.5,3H21.775Zm-3.5,21,2.5-15h6.459l2.5,15Z"/><path d="M8,30.5a1.5,1.5,0,0,0,0,3h6.005a1.5,1.5,0,1,0,0-3Z"/><path d="M20.005,30.5a1.5,1.5,0,1,0,0,3H26.01a1.5,1.5,0,1,0,0-3Z"/><path d="M47,44.5A2.5,2.5,0,1,0,49.5,47,2.5,2.5,0,0,0,47,44.5Z" style="fill:#3e3ef4"/><path d="M62,42.5H59.716a13.619,13.619,0,0,0-.542-1.31l1.614-1.615a1.5,1.5,0,0,0,0-2.121l-4.242-4.243a1.5,1.5,0,0,0-2.121,0L52.81,34.826a13.619,13.619,0,0,0-1.31-.542V32A1.5,1.5,0,0,0,50,30.5H44A1.5,1.5,0,0,0,42.5,32v2.284a13.619,13.619,0,0,0-1.31.542l-1.615-1.615a1.5,1.5,0,0,0-2.121,0l-4.243,4.243a1.5,1.5,0,0,0,0,2.121l1.615,1.615a13.368,13.368,0,0,0-.542,1.31H32A1.5,1.5,0,0,0,30.5,44v6A1.5,1.5,0,0,0,32,51.5h2.284a13.368,13.368,0,0,0,.542,1.31l-1.615,1.615a1.5,1.5,0,0,0,0,2.121l4.243,4.243a1.5,1.5,0,0,0,2.121,0l1.615-1.615a13.368,13.368,0,0,0,1.31.542V62A1.5,1.5,0,0,0,44,63.5h6A1.5,1.5,0,0,0,51.5,62V59.716a13.368,13.368,0,0,0,1.31-.542l1.615,1.615a1.545,1.545,0,0,0,2.121,0l4.242-4.243a1.5,1.5,0,0,0,0-2.121L59.174,52.81a13.619,13.619,0,0,0,.542-1.31H62A1.5,1.5,0,0,0,63.5,50V44A1.5,1.5,0,0,0,62,42.5Zm-15,10A5.5,5.5,0,1,1,52.5,47,5.506,5.506,0,0,1,47,52.5Z" style="fill:#3e3ef4"/></svg>
