<svg height="512" viewBox="0 0 64 64" width="512" xmlns="http://www.w3.org/2000/svg"><g id="artwork"><path d="m62 25.98047h-3a1.5 1.5 0 0 0 0 3h3a1.5 1.5 0 0 0 0-3z"/><path d="m6.5 27.48047a1.50007 1.50007 0 0 0 -1.5-1.5h-3a1.5 1.5 0 0 0 0 3h3a1.50008 1.50008 0 0 0 1.5-1.5z"/><path d="m59.67775 15.81033-2.81908 1.02606a1.5 1.5 0 1 0 1.02606 2.81907l2.81908-1.02606a1.5 1.5 0 1 0 -1.02606-2.81907z"/><path d="m8.03784 36.202a1.50008 1.50008 0 0 0 -1.92257-.89651l-2.81908 1.02604a1.5 1.5 0 1 0 1.02606 2.81908l2.81908-1.02606a1.50008 1.50008 0 0 0 .89651-1.92255z"/><path d="m54.01715 7.04777-2.29815 1.92837a1.5 1.5 0 1 0 1.92836 2.29813l2.29813-1.92836a1.5 1.5 0 0 0 -1.92836-2.29814z"/><path d="m12.46587 43.87155a1.50008 1.50008 0 0 0 -2.11325-.18488l-2.29813 1.92833a1.5 1.5 0 1 0 1.92836 2.29813l2.29815-1.92833a1.50007 1.50007 0 0 0 .18487-2.11325z"/><path d="m45.701 1.25022-1.5 2.59807a1.5 1.5 0 1 0 2.59808 1.5l1.5-2.59807a1.5 1.5 0 0 0 -2.59808-1.5z"/><path d="m59.67775 39.15061-2.81908-1.02606a1.5 1.5 0 1 1 1.02606-2.81908l2.81908 1.02606a1.5 1.5 0 1 1 -1.02606 2.81908z"/><path d="m8.03784 18.759a1.50007 1.50007 0 0 1 -1.92257.8965l-2.81908-1.0261a1.5 1.5 0 1 1 1.02606-2.81907l2.81908 1.02606a1.50008 1.50008 0 0 1 .89651 1.92261z"/><path d="m54.01715 47.91316-2.29815-1.92836a1.5 1.5 0 1 1 1.92836-2.29813l2.29815 1.92833a1.5 1.5 0 1 1 -1.92836 2.29813z"/><path d="m12.46587 11.08938a1.50007 1.50007 0 0 1 -2.11325.18489l-2.29813-1.92836a1.5 1.5 0 1 1 1.92836-2.29814l2.29815 1.92837a1.50006 1.50006 0 0 1 .18487 2.11324z"/><path d="m19.25 5.89733a1.50007 1.50007 0 0 1 -2.049-.549l-1.5-2.59807a1.5 1.5 0 0 1 2.59808-1.5l1.5 2.59807a1.50008 1.50008 0 0 1 -.54908 2.049z"/><path d="m32 5.48047a22.487 22.487 0 0 0 -12 41.51269v9.00684a7.5082 7.5082 0 0 0 7.5 7.5h9a7.5082 7.5082 0 0 0 7.5-7.5v-9.00684a22.487 22.487 0 0 0 -12-41.51269zm4.5 55.01953h-9a4.50818 4.50818 0 0 1 -4.24316-3h17.48632a4.50818 4.50818 0 0 1 -4.24316 3zm4.5-6h-18v-3h18zm.748-9.64941a1.50043 1.50043 0 0 0 -.748 1.29785v2.35156h-18v-2.35156a1.50043 1.50043 0 0 0 -.748-1.29785 19.5 19.5 0 1 1 19.4961 0z"/><path d="m45.21582 21.97754-8.20264-1.19141-3.668-7.43359a1.50145 1.50145 0 0 0 -2.69042 0l-3.668 7.43359-8.20264 1.19141a1.501 1.501 0 0 0 -.83106 2.55859l5.93506 5.78516-1.40136 8.16894a1.50126 1.50126 0 0 0 2.17627 1.582l7.33697-3.85739 7.33691 3.85743a1.50153 1.50153 0 0 0 2.17627-1.582l-1.40136-8.16894 5.93506-5.78516a1.50093 1.50093 0 0 0 -.83106-2.55863z" fill="#3e3ef4"/></g></svg>