<?xml version="1.0" encoding="UTF-8"?>
<svg xmlns="http://www.w3.org/2000/svg" id="artwork" width="512" height="512" viewBox="0 0 64 64"><path d="M58.832,30.5H35.168a4.58772,4.58772,0,0,0-4.66162,4.25977A4.49022,4.49022,0,0,0,33.5,39.24121V60A3.50424,3.50424,0,0,0,37,63.5H57A3.50424,3.50424,0,0,0,60.5,60V39.24121a4.4894,4.4894,0,0,0,2.99365-4.48047A4.58783,4.58783,0,0,0,58.832,30.5ZM41.06055,57.06055l-2,2a1.49984,1.49984,0,0,1-2.1211-2.1211l2-2a1.49984,1.49984,0,0,1,2.1211,2.1211Zm0-10-2,2a1.49984,1.49984,0,0,1-2.1211-2.1211l2-2a1.49984,1.49984,0,0,1,2.1211,2.1211Zm0-10-2,2a1.49984,1.49984,0,0,1-2.1211-2.1211l2-2a1.49984,1.49984,0,0,1,2.1211,2.1211Zm8,17a1.49947,1.49947,0,0,1-2.1211,0l-2-2a1.49984,1.49984,0,0,1,2.1211-2.1211l2,2A1.49947,1.49947,0,0,1,49.06055,54.06055Zm0-10a1.49947,1.49947,0,0,1-2.1211,0l-2-2a1.49984,1.49984,0,0,1,2.1211-2.1211l2,2A1.49947,1.49947,0,0,1,49.06055,44.06055Zm8,13-2,2a1.49984,1.49984,0,0,1-2.1211-2.1211l2-2a1.49984,1.49984,0,0,1,2.1211,2.1211Zm0-10-2,2a1.49984,1.49984,0,0,1-2.1211-2.1211l2-2a1.49984,1.49984,0,0,1,2.1211,2.1211Zm0-10-2,2a1.49984,1.49984,0,0,1-2.1211-2.1211l2-2a1.49984,1.49984,0,0,1,2.1211,2.1211Z" style="fill:#3e3ef4"/><path d="M26.88232,46.30371A1.49987,1.49987,0,0,0,27.5,45.09082v-39a1.5,1.5,0,0,0-3,0V9.418l-4.63623,3.37176V2a1.5,1.5,0,0,0-3,0V14.9715L14,17.0542l-2.86377-2.0827V2a1.5,1.5,0,0,0-3,0V12.78973L3.5,9.418V6.09082a1.5,1.5,0,0,0-3,0v39a1.49987,1.49987,0,0,0,.61768,1.21289L12.5,54.582V60.5H2a1.5,1.5,0,0,0,0,3H26a1.5,1.5,0,0,0,0-3H15.5V54.582ZM15.5,19.67285l9-6.54565v5.01831l-9,6.54535Zm0,8.727,9-6.54529v5.01795l-9,6.54535Zm0,8.72705,9-6.54528v5.01794l-9,6.54578Zm0,8.72754,9-6.54565v5.01831l-9,6.54577Zm-3,5.01843-9-6.54577V39.30884l9,6.54565Zm0-8.72753-9-6.54578V30.58167l9,6.54528Zm0-8.72748-9-6.54535V21.85461l9,6.54529Zm0-8.727-9-6.54535V13.1272l9,6.54565Z"/></svg>
