<svg id="Layer_1" data-name="Layer 1" xmlns="http://www.w3.org/2000/svg" viewBox="0 0 24 24"><defs><style>.cls-1{fill:none;stroke:#000;stroke-linecap:round;stroke-linejoin:round;}</style></defs><path id="Path_33" data-name="Path 33" class="cls-1" d="M2.76,8.52c-1.09,1.15,1,5.61,5,9.42s8.46,5.54,9.55,4.39l1.6-1.69a1.33,1.33,0,0,0-.05-1.87l-1.79-1.7c-.53-.51-1.12-.65-1.62-.13L14.4,18a.93.93,0,0,1-1,.22,12.26,12.26,0,0,1-3.65-2.43,11.91,11.91,0,0,1-2.61-3.53.9.9,0,0,1,.16-1l1-1.09C8.83,9.66,8.55,9,8,8.49l-1.8-1.7a1.33,1.33,0,0,0-1.87,0h0Z"/><path class="cls-1" d="M21.53,6.42v6.75L18.64,11a5,5,0,0,1-2.22.52,5.11,5.11,0,1,1,5.11-5.12Z"/><line class="cls-1" x1="16.42" y1="4.29" x2="16.42" y2="8.56"/><line class="cls-1" x1="14.29" y1="6.42" x2="18.55" y2="6.42"/></svg>