<svg id="Layer_1" data-name="Layer 1" xmlns="http://www.w3.org/2000/svg" viewBox="0 0 24 24"><defs><style>.cls-1{fill:none;stroke:#000;stroke-linecap:round;stroke-linejoin:round;}</style></defs><path class="cls-1" d="M19,9.35v.89L17.09,19H3.33a1.18,1.18,0,0,1-1.18-1.18V9.35A1.18,1.18,0,0,1,3.33,8.17h14.5A1.18,1.18,0,0,1,19,9.35Z"/><path class="cls-1" d="M16.78,8v.18H4.37V8.1A6.19,6.19,0,0,1,15,3.61,6.19,6.19,0,0,1,16.78,8Z"/><circle class="cls-1" cx="6.43" cy="13.53" r="0.49"/><circle class="cls-1" cx="10.58" cy="13.53" r="0.49"/><circle class="cls-1" cx="14.72" cy="13.53" r="0.49"/><polygon class="cls-1" points="22.9 4.85 22.25 7.82 19.39 21.03 17.61 22.93 16.78 20.46 17.09 19.03 19 10.24 20.29 4.29 22.9 4.85"/><line class="cls-1" x1="19.65" y1="7.25" x2="22.26" y2="7.82"/></svg>