<svg id="Layer_1" data-name="Layer 1" xmlns="http://www.w3.org/2000/svg" viewBox="0 0 24 24"><defs><style>.cls-1{fill:none;stroke:#000;stroke-linecap:round;stroke-linejoin:round;}</style></defs><path class="cls-1" d="M13.79,19.71v.68a.75.75,0,0,1-.76.76H2.13a.75.75,0,0,1-.76-.76V3.24a.76.76,0,0,1,.76-.76h8.18L13.79,6V7.14"/><path class="cls-1" d="M23.16,13.43a6.8,6.8,0,0,1-6.79,6.79,6.71,6.71,0,0,1-2.58-.51,6.8,6.8,0,0,1,0-12.57,6.89,6.89,0,0,1,2.58-.5A6.8,6.8,0,0,1,23.16,13.43Z"/><path id="Path_19" data-name="Path 19" class="cls-1" d="M10.31,2.47,13.79,6H11.07a.76.76,0,0,1-.76-.76h0Z"/><line id="Line_11" data-name="Line 11" class="cls-1" x1="7.58" y1="12.63" x2="7.58" y2="9.12"/><line id="Line_12" data-name="Line 12" class="cls-1" x1="7.58" y1="15.21" x2="7.58" y2="15.79"/><path class="cls-1" d="M13.87,10.77a2.59,2.59,0,1,1,2.39,3.6v1.44"/><line class="cls-1" x1="16.36" y1="17.98" x2="16.36" y2="17.98"/></svg>