<svg id="Layer_1" data-name="Layer 1" xmlns="http://www.w3.org/2000/svg" viewBox="0 0 24 24"><defs><style>.cls-1,.cls-2{fill:none;stroke:#000;stroke-linecap:round;}.cls-1{stroke-linejoin:round;}.cls-2{stroke-miterlimit:10;}</style></defs><path class="cls-1" d="M17.11,3.48V13.89H17a.24.24,0,0,0-.23.24V15a4.26,4.26,0,0,0-.85.36l-.63-.65a.26.26,0,0,0-.35,0l-.93.93A.24.24,0,0,0,14,16l.63.64a3.64,3.64,0,0,0-.35.84h-.9a.25.25,0,0,0-.24.25v1.32a.25.25,0,0,0,.24.25h.9c0,.11.08.22.12.33a4.67,4.67,0,0,0,.23.51L14,20.8a.24.24,0,0,0,0,.35l.48.48H6.27a2.18,2.18,0,0,1-2.19-2.19v-16a2.2,2.2,0,0,1,2.19-2.2h8.65A2.2,2.2,0,0,1,17.11,3.48Z"/><line class="cls-1" x1="4.15" y1="4.42" x2="17.03" y2="4.42"/><line class="cls-1" x1="13.1" y1="18.41" x2="4.08" y2="18.41"/><line class="cls-2" x1="9.21" y1="2.94" x2="11.98" y2="2.94"/><circle class="cls-1" cx="10.59" cy="20.09" r="0.35"/><g id="Group_51" data-name="Group 51"><path class="cls-1" d="M21.9,17.5H21a4.11,4.11,0,0,0-.34-.84l.62-.64a.23.23,0,0,0,0-.35l-.93-.93a.25.25,0,0,0-.34,0l-.64.65a4,4,0,0,0-.85-.36v-.9a.24.24,0,0,0-.25-.24H17a.24.24,0,0,0-.23.24V15a4.26,4.26,0,0,0-.85.36l-.63-.65a.26.26,0,0,0-.35,0l-.93.93A.24.24,0,0,0,14,16l.63.64a3.64,3.64,0,0,0-.35.84h-.9a.25.25,0,0,0-.24.25v1.32a.25.25,0,0,0,.24.25h.9c0,.11.08.22.12.33a4.67,4.67,0,0,0,.23.51L14,20.8a.24.24,0,0,0,0,.35l.93.93a.24.24,0,0,0,.35,0l.63-.65a2.76,2.76,0,0,0,.85.36v.9a.25.25,0,0,0,.23.25h1.32a.25.25,0,0,0,.25-.25v-.9a2.66,2.66,0,0,0,.85-.36l.64.65a.23.23,0,0,0,.34,0l.93-.93a.23.23,0,0,0,0-.35l-.62-.64a4.35,4.35,0,0,0,.34-.84h.9a.24.24,0,0,0,.24-.25V17.75A.25.25,0,0,0,21.9,17.5ZM17.62,20a1.29,1.29,0,0,1-.55-.11,1.23,1.23,0,0,1-.6-.4,1.55,1.55,0,0,1,.64-2.54,1.25,1.25,0,0,1,.51-.1,1.58,1.58,0,1,1,0,3.15Z"/><path class="cls-1" d="M19.21,18.41A1.58,1.58,0,0,1,17.62,20a1.29,1.29,0,0,1-.55-.11,1.23,1.23,0,0,1-.6-.4,1.55,1.55,0,0,1,.64-2.54,1.25,1.25,0,0,1,.51-.1A1.59,1.59,0,0,1,19.21,18.41Z"/></g><path id="Path_33" data-name="Path 33" class="cls-1" d="M7.94,8c-.37.42,0,2.51,1.4,4s3.41,1.71,3.79,1.29l.56-.62a.52.52,0,0,0,0-.7L13,11.24c-.19-.19-.4-.25-.57-.06l-.36.4a.31.31,0,0,1-.35.08,4.56,4.56,0,0,1-1.3-.93A4.65,4.65,0,0,1,9.5,9.4.35.35,0,0,1,9.55,9l.36-.4c.17-.2.07-.45-.11-.64l-.65-.65a.43.43,0,0,0-.65,0h0Z"/></svg>