<svg id="Layer_1" data-name="Layer 1" xmlns="http://www.w3.org/2000/svg" viewBox="0 0 24 24"><defs><style>.cls-1{fill:none;stroke:#000;stroke-linecap:round;stroke-linejoin:round;}</style></defs><path class="cls-1" d="M19.29,6.3v5.54h-.55a.2.2,0,0,0-.19.2v.74a3.33,3.33,0,0,0-.7.29l-.52-.53a.22.22,0,0,0-.3,0l-.76.77a.21.21,0,0,0,0,.29l.52.53a3.25,3.25,0,0,0-.29.69h-.74a.21.21,0,0,0-.2.2v1.09a.2.2,0,0,0,.2.21h.74c0,.08.06.18.1.27h-14A1.6,1.6,0,0,1,1,15V6.3a1.6,1.6,0,0,1,1.6-1.6H17.69A1.6,1.6,0,0,1,19.29,6.3Z"/><path class="cls-1" d="M19.29,6.47,11,11.85a1.63,1.63,0,0,1-1.75,0L1,6.47"/><g id="Group_51" data-name="Group 51"><path class="cls-1" d="M22.82,14.82h-.74a2.8,2.8,0,0,0-.29-.69l.53-.53a.21.21,0,0,0,0-.29l-.78-.77a.19.19,0,0,0-.28,0l-.52.53a3.56,3.56,0,0,0-.7-.29V12a.2.2,0,0,0-.21-.2H18.74a.2.2,0,0,0-.19.2v.74a3.33,3.33,0,0,0-.7.29l-.52-.53a.22.22,0,0,0-.3,0l-.76.77a.21.21,0,0,0,0,.29l.52.53a3.25,3.25,0,0,0-.29.69h-.74a.21.21,0,0,0-.2.2v1.09a.2.2,0,0,0,.2.21h.74c0,.08.06.18.1.27a2.6,2.6,0,0,0,.19.42l-.52.53a.19.19,0,0,0,0,.28l.76.77a.22.22,0,0,0,.3,0l.52-.53a2.53,2.53,0,0,0,.7.29v.75a.2.2,0,0,0,.19.2h1.09a.2.2,0,0,0,.21-.2v-.75a2.66,2.66,0,0,0,.7-.29l.52.53a.19.19,0,0,0,.28,0l.78-.77a.19.19,0,0,0,0-.28L21.79,17a3,3,0,0,0,.29-.69h.74a.2.2,0,0,0,.2-.21V15A.2.2,0,0,0,22.82,14.82Zm-3.53,2.05a1.33,1.33,0,0,1-1.3-1.3,1.31,1.31,0,1,1,1.3,1.3Z"/><path class="cls-1" d="M20.6,15.57a1.31,1.31,0,0,1-1.31,1.3,1.33,1.33,0,0,1-1.3-1.3,1.31,1.31,0,0,1,2.61,0Z"/></g></svg>