<svg id="Layer_1" data-name="Layer 1" xmlns="http://www.w3.org/2000/svg" viewBox="0 0 24 24"><defs><style>.cls-1,.cls-2{fill:none;stroke:#000;stroke-linecap:round;}.cls-1{stroke-linejoin:round;}.cls-2{stroke-miterlimit:10;}</style></defs><path class="cls-1" d="M9.82,7.69v7.37h1.41l-.51,2.79,3.71-2.79h4.79v5.59A2.38,2.38,0,0,1,16.84,23H7.48A2.39,2.39,0,0,1,5.1,20.65V3.36A2.39,2.39,0,0,1,7.48,1h9.36a2.38,2.38,0,0,1,2.38,2.38v2.7h-8A1.52,1.52,0,0,0,9.82,7.69Z"/><line class="cls-1" x1="5.19" y1="4.37" x2="19.13" y2="4.37"/><line class="cls-1" x1="5.1" y1="19.53" x2="19.22" y2="19.53"/><line class="cls-2" x1="10.66" y1="2.77" x2="13.66" y2="2.77"/><circle class="cls-1" cx="12.16" cy="21.35" r="0.38"/><path class="cls-1" d="M21.74,7.69v5.74a1.52,1.52,0,0,1-1.38,1.63H14.43l-3.71,2.79.51-2.79H9.82V7.69A1.52,1.52,0,0,1,11.2,6.06h9.16A1.52,1.52,0,0,1,21.74,7.69Z"/><line id="Line_11" data-name="Line 11" class="cls-1" x1="15.92" y1="10.73" x2="15.92" y2="8"/><line id="Line_12" data-name="Line 12" class="cls-1" x1="15.92" y1="12.63" x2="15.92" y2="13.07"/></svg>