<?xml version="1.0" encoding="UTF-8"?>
<svg width="20px" height="20px" viewBox="0 0 20 20" version="1.1" xmlns="http://www.w3.org/2000/svg" xmlns:xlink="http://www.w3.org/1999/xlink">
    <title>Tollfree</title>
    <g id="Page-1" stroke="none" stroke-width="1" fill="none" fill-rule="evenodd">
        <g id="Icon-List" transform="translate(-178.000000, -256.000000)" fill="#FFFFFF" fill-rule="nonzero">
            <g id="Tollfree" transform="translate(178.000000, 256.000000)">
                <path d="M4.98018352,2.00062243 C4.60453913,2.01107948 4.24405152,2.15295847 3.95771342,2.40206749 L3.84043165,2.51537017 L2.38304887,4.0942087 C1.07145192,5.51442193 3.26465806,9.9587689 6.88079192,13.4911553 C7.74555367,14.3358896 8.65179502,15.0904308 9.54775595,15.7296632 L9.99464008,16.0395541 C12.6679291,17.8398494 15.1710543,18.5646918 16.1064953,17.5359581 L17.5434087,15.9835279 C17.8474348,15.6537685 18.0112653,15.2138992 17.9993974,14.7602577 C17.9875295,14.3066162 17.8009381,13.8764725 17.4807807,13.5647056 L15.8684021,12.0077583 C15.188895,11.3376166 14.3733613,11.2355415 13.7496456,11.914055 L12.8411737,12.8859376 C12.7384573,12.9995831 12.5870371,13.0344349 12.454685,12.9796842 C11.2998096,12.4687805 10.2355532,11.7391175 9.32434611,10.830846 C8.38986199,9.93855629 7.62771169,8.88627458 7.06814345,7.71874712 C7.0128831,7.5940804 7.03876399,7.43236054 7.13939279,7.32254193 L8.06404948,6.32357738 C8.65695142,5.64532229 8.50426489,4.84271108 7.88394308,4.18564474 L6.16810877,2.47255529 C5.84641829,2.15714597 5.41999664,1.98837908 4.98018352,2.00062243 Z M5.00562311,2.97011805 C5.19502933,2.96484543 5.3786685,3.03752516 5.51591154,3.17207729 L7.12887846,4.78169183 C7.51202802,5.14711696 7.57952426,5.42860728 7.37334407,5.66456728 L6.45624251,6.65508865 C6.09065847,7.05405031 5.99705293,7.63895572 6.21798476,8.13544666 C6.83419823,9.4216173 7.66556756,10.569468 8.67689038,11.534961 C9.66293214,12.5179825 10.8231924,13.3134666 12.0934641,13.8752577 C12.5976155,14.0839585 13.1626281,13.9539119 13.5250812,13.5525197 L14.4306861,12.5837838 C14.6496894,12.3455641 14.8784733,12.3741995 15.2208048,12.7117941 L16.8353335,14.2708484 C16.9723206,14.4042514 17.0529989,14.5902366 17.0581303,14.7863818 C17.0632618,14.9825271 16.9924248,15.1727175 16.8612444,15.315002 L15.422104,16.8698643 C15.0567158,17.2716799 13.9763869,17.079236 12.5941435,16.4228473 L12.2099928,16.2324273 C12.1448236,16.1988061 12.0791081,16.1642509 12.0128852,16.1287738 L11.6097691,15.904947 C10.7926,15.4355606 9.9135333,14.8369527 9.0395964,14.1302713 L8.60336575,13.7680223 C8.24071364,13.4588063 7.88089158,13.1314394 7.5287482,12.7874515 C7.03385609,12.3040208 6.56839826,11.801193 6.13758982,11.2931285 L5.77693264,10.8566925 L5.4339764,10.4196732 C4.7662514,9.54637228 4.20911089,8.68146129 3.78882803,7.89627849 L3.59021303,7.51066138 C2.93582882,6.18656744 2.71398142,5.14305338 3.06547854,4.76244796 L4.50543235,3.20151972 L4.58520647,3.12465433 C4.68859784,3.03572626 4.84385391,2.97462132 5.00562311,2.97011805 Z" id="Path_33"></path>
            </g>
        </g>
    </g>
</svg>