<?xml version="1.0" encoding="utf-8"?>
<!-- Generator: Adobe Illustrator 16.0.0, SVG Export Plug-In . SVG Version: 6.00 Build 0)  -->
<!DOCTYPE svg PUBLIC "-//W3C//DTD SVG 1.1//EN" "http://www.w3.org/Graphics/SVG/1.1/DTD/svg11.dtd">
<svg version="1.1" id="Layer_1" xmlns="http://www.w3.org/2000/svg" xmlns:xlink="http://www.w3.org/1999/xlink" x="0px" y="0px"
	 width="204.173px" height="48.293px" viewBox="0 0 204.173 48.293" enable-background="new 0 0 204.173 48.293"
	 xml:space="preserve">
<g>
	<path fill="#fff" d="M7.463,20.41h2.991l-1.063,2.967H6.399L7.463,20.41z M12.942,13.31l-1.823,5.094H8.197L10,13.31H7.769
		l-1.809,5.094H2.267L1.556,20.41h3.679l-1.055,2.94H0.711L0,25.363h3.49l-1.82,5.07h2.22l1.844-5.07h2.946l-1.825,5.07h2.231
		l1.821-5.07h3.586l0.713-2.013h-3.609l1.051-2.94h3.424l0.688-2.007h-3.396l1.799-5.094H12.942z"/>
	<polygon fill="#fff" points="22.912,30.323 19.607,16.893 17.687,16.893 18.289,13.408 26.41,13.408 25.753,16.893 
		23.799,16.893 25.396,24.907 29.946,16.893 27.939,16.893 28.561,13.408 36.486,13.408 35.883,16.893 34.23,16.893 25.753,30.323 	
		"/>
	<path fill="#fff" d="M42.494,26.824h2.361l-0.618,3.499H41.88h-6.567l0.621-3.499h2.328l1.795-9.933h-2.362l0.604-3.485h6.557
		L42.494,26.824z M39.792,10.566l0.763-4.41h5.352l-0.766,4.41H39.792z"/>
	<path fill="#fff" d="M55.201,15.473h0.316c0.249-0.795,0.637-1.409,1.168-1.852c0.524-0.438,1.141-0.656,1.854-0.656
		c0.805,0,1.449,0.245,1.928,0.729c0.481,0.487,0.725,1.131,0.725,1.935c0,0.916-0.309,1.677-0.912,2.286
		c-0.6,0.614-1.366,0.915-2.288,0.915c-0.728,0-1.303-0.201-1.745-0.609c-0.437-0.414-0.729-1.022-0.87-1.825h-0.337l-1.848,10.43
		h2.684l-0.604,3.5h-9.259l0.619-3.5h2.33l1.796-9.932h-2.366l0.606-3.486h6.56L55.201,15.473z"/>
	<path fill="#fff" d="M76.934,13.406h6.396l-0.622,3.485h-2.255l-1.777,9.933h2.396l-0.619,3.499h-6.611l0.316-1.383
		c-0.793,0.595-1.623,1.04-2.494,1.344c-0.871,0.297-1.774,0.452-2.709,0.452c-2.229,0-4.059-0.748-5.491-2.249
		c-1.435-1.498-2.153-3.42-2.153-5.766c0-2.738,0.932-5.049,2.785-6.932c1.852-1.885,4.154-2.824,6.904-2.824
		c1.182,0,2.249,0.215,3.208,0.646c0.951,0.435,1.735,1.053,2.353,1.86L76.934,13.406z M70.056,27.417
		c1.657,0,3.017-0.604,4.079-1.806c1.061-1.207,1.59-2.748,1.59-4.628c0-1.377-0.434-2.513-1.296-3.405
		c-0.866-0.893-1.975-1.346-3.327-1.346c-1.583,0-2.913,0.623-3.984,1.859c-1.078,1.24-1.614,2.781-1.614,4.63
		c0,1.433,0.413,2.573,1.228,3.419C67.551,26.989,68.657,27.417,70.056,27.417"/>
	<polygon fill="#fff" points="89.78,26.824 92.143,26.824 91.524,30.324 82.602,30.324 83.224,26.824 85.551,26.824 
		88.945,7.614 86.58,7.614 87.187,4.114 93.742,4.114 	"/>
	<path fill="#fff" d="M102.951,13.406l-0.445,2.066c1.053-0.831,2.089-1.459,3.109-1.876c1.02-0.421,2.02-0.631,3.004-0.631
		c1.124,0,2.037,0.247,2.727,0.744c0.691,0.5,1.135,1.211,1.328,2.133c1.063-0.945,2.15-1.662,3.265-2.149
		c1.116-0.486,2.216-0.728,3.31-0.728c1.35,0,2.391,0.352,3.123,1.058c0.734,0.704,1.104,1.697,1.104,2.979
		c0,0.223-0.019,0.496-0.054,0.823c-0.035,0.324-0.088,0.684-0.162,1.077l-1.384,7.922h2.362l-0.583,3.499h-8.766l0.534-3.499h2.363
		l1.316-7.514c0.032-0.203,0.064-0.387,0.08-0.553c0.016-0.167,0.025-0.325,0.025-0.479c0-0.546-0.156-0.96-0.467-1.247
		c-0.318-0.282-0.777-0.424-1.382-0.424c-0.71,0-1.476,0.206-2.291,0.616c-0.817,0.406-1.642,1.001-2.47,1.783l-1.348,7.816h2.32
		l-0.547,3.499h-8.797l0.566-3.499h2.332l1.35-7.514c0.021-0.146,0.041-0.29,0.053-0.437c0.01-0.146,0.016-0.349,0.016-0.595
		c0-0.546-0.151-0.96-0.469-1.247c-0.312-0.282-0.775-0.424-1.375-0.424c-0.703,0-1.447,0.203-2.24,0.602
		c-0.799,0.405-1.623,1.004-2.488,1.798l-1.388,7.816h2.366l-0.626,3.499h-8.848l0.622-3.499h2.325l1.794-9.932h-2.361l0.607-3.486
		H102.951z"/>
	<path fill="#fff" d="M142.152,13.406h6.396l-0.621,3.485h-2.256l-1.777,9.933h2.396l-0.619,3.499h-6.613l0.32-1.383
		c-0.793,0.595-1.627,1.04-2.494,1.344c-0.873,0.297-1.777,0.452-2.713,0.452c-2.224,0-4.057-0.748-5.494-2.249
		c-1.431-1.498-2.147-3.42-2.147-5.766c0-2.738,0.932-5.049,2.783-6.932c1.853-1.885,4.153-2.824,6.903-2.824
		c1.184,0,2.254,0.215,3.209,0.646c0.953,0.435,1.738,1.053,2.352,1.86L142.152,13.406z M135.273,27.417
		c1.658,0,3.02-0.604,4.082-1.806c1.055-1.207,1.588-2.748,1.588-4.628c0-1.377-0.432-2.513-1.297-3.405s-1.975-1.346-3.324-1.346
		c-1.588,0-2.916,0.623-3.99,1.859c-1.069,1.24-1.607,2.781-1.607,4.63c0,1.433,0.41,2.573,1.227,3.419
		C132.772,26.989,133.873,27.417,135.273,27.417"/>
	<path fill="#fff" d="M152.674,16.893h-2.598l0.623-3.486h2.561l0.764-4.332c0.305-1.755,0.898-3.018,1.777-3.796
		c0.875-0.777,2.137-1.164,3.783-1.164c0.32,0,0.676,0.015,1.076,0.046c0.393,0.028,0.824,0.066,1.287,0.115l-0.551,3.232
		c-0.119-0.013-0.301-0.031-0.551-0.062c-0.25-0.026-0.426-0.043-0.535-0.043c-0.688,0-1.186,0.174-1.498,0.523
		c-0.314,0.351-0.578,1.134-0.789,2.352l-0.555,3.128h2.545l-0.607,3.486h-2.521l-1.777,9.932h2.541l-0.605,3.5h-9.326l0.615-3.5
		h2.545L152.674,16.893z"/>
	<path fill="#fff" d="M166.428,26.824h2.363l-0.625,3.499h-8.92l0.621-3.499h2.33l1.795-9.933h-2.361l0.6-3.485h6.561
		L166.428,26.824z M163.725,10.566l0.766-4.41h5.346l-0.76,4.41H163.725z"/>
	<path fill="#fff" d="M186.775,13.406h6.396l-0.623,3.485h-2.256l-1.779,9.933h2.402l-0.623,3.499h-6.615l0.324-1.383
		c-0.793,0.595-1.623,1.04-2.498,1.344c-0.867,0.297-1.77,0.452-2.707,0.452c-2.232,0-4.063-0.748-5.494-2.249
		c-1.434-1.498-2.15-3.42-2.15-5.766c0-2.738,0.928-5.049,2.787-6.932c1.848-1.885,4.148-2.824,6.896-2.824
		c1.184,0,2.254,0.215,3.209,0.646c0.953,0.435,1.74,1.053,2.355,1.86L186.775,13.406z M179.893,27.417
		c1.662,0,3.02-0.604,4.084-1.806c1.057-1.207,1.588-2.748,1.588-4.628c0-1.377-0.432-2.513-1.297-3.405
		c-0.867-0.893-1.971-1.346-3.322-1.346c-1.588,0-2.918,0.623-3.988,1.859c-1.074,1.24-1.609,2.781-1.609,4.63
		c0,1.433,0.406,2.573,1.225,3.419C177.391,26.989,178.498,27.417,179.893,27.417"/>
	<path fill="#fff" d="M59.965,44.498c-0.59,0.242-1.678,0.547-2.873,0.547c-1.436,0-2.555-0.411-3.326-1.272
		c-0.77-0.858-1.027-1.964-1.027-2.976c0-1.694,0.68-3.461,1.996-4.641c1.088-0.952,2.554-1.514,4.188-1.514
		c1.254,0,2.102,0.287,2.402,0.468l-0.407,1.059c-0.53-0.257-1.224-0.439-2.147-0.439c-1.207,0-2.313,0.439-3.158,1.242
		c-0.951,0.892-1.528,2.343-1.528,3.732c0,1.967,0.984,3.265,3.253,3.265c0.603,0,1.178-0.12,1.557-0.285l0.574-3.039h-2.072
		l0.197-1.029h3.295L59.965,44.498z"/>
	<path fill="#fff" d="M61.455,44.938l0.894-4.717c0.181-0.951,0.302-1.917,0.378-2.602h1.104
		c-0.061,0.516-0.12,1.031-0.196,1.588h0.046c0.467-0.997,1.254-1.751,2.236-1.751c0.106,0,0.258,0.012,0.348,0.028l-0.241,1.239
		c-0.078-0.012-0.198-0.029-0.333-0.029c-1.09,0-2.056,1.315-2.374,3.021l-0.604,3.222H61.455z"/>
	<path fill="#fff" d="M72.806,40.507c0,2.253-1.601,4.596-4.05,4.596c-1.83,0-2.857-1.358-2.857-3.008
		c0-2.404,1.678-4.64,4.053-4.64C71.93,37.455,72.806,38.953,72.806,40.507 M67.197,42.05c0,1.193,0.65,2.056,1.725,2.056
		c1.482,0,2.6-1.903,2.6-3.614c0-0.846-0.392-2.04-1.708-2.04C68.242,38.451,67.184,40.37,67.197,42.05"/>
	<path fill="#fff" d="M74.934,37.619l0.257,4.112c0.062,0.906,0.046,1.377,0.032,1.967h0.045
		c0.166-0.468,0.438-1.104,0.801-1.831l2.176-4.248h1.09l0.451,4.173c0.078,0.803,0.137,1.423,0.123,1.906h0.029
		c0.197-0.59,0.408-1.146,0.696-1.845l1.979-4.234h1.27l-3.611,7.319h-1.164l-0.484-3.977c-0.076-0.681-0.105-1.301-0.105-1.935
		h-0.029c-0.303,0.694-0.516,1.254-0.849,1.903l-2.101,4.008h-1.166l-0.678-7.319H74.934z"/>
	<path fill="#fff" d="M86.781,35.655l-0.377,1.964h1.754l-0.197,0.985h-1.754l-0.678,3.551c-0.078,0.408-0.139,0.787-0.139,1.18
		c0,0.438,0.213,0.694,0.695,0.694c0.213,0,0.424-0.016,0.591-0.043l-0.062,0.98c-0.228,0.094-0.604,0.138-0.968,0.138
		c-1.12,0-1.542-0.683-1.542-1.421c0-0.424,0.047-0.848,0.151-1.377l0.728-3.702h-1.061l0.197-0.985h1.043l0.318-1.646
		L86.781,35.655z"/>
	<path fill="#fff" d="M87.852,44.938l2.042-10.732h1.253l-0.905,4.716h0.03c0.619-0.894,1.512-1.465,2.615-1.465
		c0.831,0,1.814,0.514,1.814,1.962c0,0.395-0.046,0.863-0.121,1.24l-0.816,4.279h-1.256l0.817-4.219
		c0.046-0.27,0.091-0.603,0.091-1.011c0-0.682-0.318-1.208-1.134-1.208c-0.969,0-2.192,1.133-2.495,2.778l-0.678,3.659H87.852z"/>
	<polygon fill="#fff" points="101.166,34.747 100.334,39.042 105.021,39.042 105.836,34.747 107.105,34.747 105.156,44.938 
		103.902,44.938 104.809,40.146 100.123,40.146 99.217,44.938 97.961,44.938 99.912,34.747 	"/>
	<path fill="#fff" d="M111.864,44.938c0-0.438,0.077-1.134,0.165-1.892H112c-0.801,1.515-1.797,2.059-2.843,2.059
		c-1.283,0-2.1-1.028-2.1-2.42c0-2.54,1.874-5.229,5.063-5.229c0.695,0,1.467,0.121,1.967,0.285l-0.742,3.809
		c-0.24,1.272-0.348,2.572-0.317,3.388H111.864z M112.68,38.558c-0.18-0.045-0.451-0.104-0.875-0.104
		c-1.889,0-3.432,1.981-3.448,4.005c0,0.815,0.288,1.618,1.256,1.618c1.042,0,2.282-1.36,2.646-3.311L112.68,38.558z"/>
	<path fill="#fff" d="M119.554,44.651c-0.378,0.179-1.135,0.438-2.117,0.438c-1.89,0-2.81-1.27-2.81-2.827
		c0-2.496,1.842-4.794,4.473-4.794c0.684,0,1.301,0.197,1.528,0.318l-0.362,0.999c-0.287-0.136-0.697-0.273-1.242-0.273
		c-1.901,0-3.096,1.874-3.096,3.597c0,1.181,0.619,1.952,1.813,1.952c0.742,0,1.316-0.228,1.693-0.409L119.554,44.651z"/>
	<path fill="#fff" d="M120.547,44.938l2.029-10.732h1.254l-1.285,6.726h0.031c0.226-0.257,0.496-0.528,0.678-0.741l2.586-2.57
		h1.541l-3.189,3.012l2.191,4.307h-1.392l-1.752-3.614l-0.922,0.834l-0.528,2.78H120.547z"/>
	<path fill="#fff" d="M127.153,44.938l1.403-7.318h1.258l-1.406,7.318H127.153z M128.786,35.58c0-0.484,0.376-0.846,0.831-0.846
		c0.453,0,0.74,0.333,0.74,0.785c-0.014,0.498-0.363,0.846-0.848,0.846C129.071,36.365,128.786,36.033,128.786,35.58"/>
	<path fill="#fff" d="M130.234,44.938l0.981-5.186c0.167-0.815,0.259-1.527,0.349-2.133h1.119l-0.181,1.438h0.029
		c0.649-1.029,1.632-1.601,2.706-1.601c0.879,0,1.859,0.497,1.859,2.041c0,0.315-0.063,0.784-0.137,1.177l-0.814,4.264h-1.256
		l0.801-4.219c0.061-0.284,0.105-0.633,0.105-0.936c0-0.74-0.287-1.283-1.146-1.283c-0.895,0-2.164,1.071-2.496,2.884l-0.664,3.554
		H130.234z"/>
	<path fill="#fff" d="M138,46.6c0.439,0.272,1.164,0.484,1.936,0.484c1.223,0,2.189-0.634,2.629-2.616l0.24-1.086h-0.043
		c-0.637,1.04-1.527,1.556-2.541,1.556c-1.465,0-2.221-1.24-2.221-2.539c-0.014-2.479,1.814-4.942,4.643-4.942
		c0.846,0,1.768,0.241,2.342,0.513l-1.119,6.045c-0.303,1.542-0.711,2.618-1.482,3.267c-0.725,0.636-1.709,0.816-2.555,0.816
		c-0.893,0-1.723-0.212-2.191-0.515L138,46.6z M143.609,38.71c-0.23-0.105-0.682-0.239-1.211-0.239c-1.828,0-3.082,1.899-3.1,3.717
		c0,0.802,0.289,1.752,1.41,1.752c1.072,0,2.158-1.358,2.43-2.798L143.609,38.71z"/>
	<path fill="#fff" d="M149.951,41.716l-1.615,3.223h-1.332l5.275-10.191h1.482l1.406,10.191h-1.287l-0.408-3.223H149.951z
		 M153.369,40.719l-0.395-2.947c-0.061-0.529-0.137-1.271-0.182-1.873h-0.029c-0.273,0.603-0.529,1.238-0.83,1.86l-1.527,2.96
		H153.369z"/>
	<path fill="#fff" d="M155.967,46.6c0.438,0.272,1.164,0.484,1.934,0.484c1.225,0,2.191-0.634,2.631-2.616l0.24-1.086h-0.045
		c-0.635,1.04-1.525,1.556-2.539,1.556c-1.467,0-2.221-1.24-2.221-2.539c-0.014-2.479,1.813-4.942,4.641-4.942
		c0.846,0,1.768,0.241,2.342,0.513l-1.117,6.045c-0.305,1.542-0.713,2.618-1.484,3.267c-0.727,0.636-1.707,0.816-2.555,0.816
		c-0.893,0-1.723-0.212-2.189-0.515L155.967,46.6z M161.574,38.71c-0.227-0.105-0.682-0.239-1.211-0.239
		c-1.828,0-3.082,1.899-3.098,3.717c0,0.802,0.287,1.752,1.408,1.752c1.072,0,2.158-1.358,2.432-2.798L161.574,38.71z"/>
	<path fill="#fff" d="M168.703,44.515c-0.541,0.317-1.434,0.576-2.416,0.576c-1.934,0-2.781-1.317-2.781-2.936
		c0-2.207,1.633-4.699,3.988-4.699c1.391,0,2.148,0.83,2.148,1.873c0,1.922-2.162,2.434-4.867,2.389
		c-0.061,0.317-0.016,1,0.15,1.393c0.289,0.648,0.875,0.982,1.633,0.982c0.861,0,1.514-0.274,1.965-0.515L168.703,44.515z
		 M167.314,38.436c-1.195,0-2.088,1.163-2.389,2.313c1.965,0.016,3.508-0.24,3.508-1.374
		C168.434,38.77,167.979,38.436,167.314,38.436"/>
	<path fill="#fff" d="M169.895,44.938l0.984-5.186c0.164-0.815,0.256-1.527,0.346-2.133h1.119l-0.18,1.438h0.029
		c0.65-1.029,1.631-1.601,2.705-1.601c0.879,0,1.859,0.497,1.859,2.041c0,0.315-0.059,0.784-0.135,1.177l-0.816,4.264h-1.256
		l0.801-4.219c0.061-0.284,0.105-0.633,0.105-0.936c0-0.74-0.285-1.283-1.145-1.283c-0.896,0-2.164,1.071-2.498,2.884l-0.664,3.554
		H169.895z"/>
	<path fill="#fff" d="M182.619,44.651c-0.377,0.179-1.133,0.438-2.115,0.438c-1.891,0-2.811-1.27-2.811-2.827
		c0-2.496,1.842-4.794,4.473-4.794c0.682,0,1.301,0.197,1.529,0.318l-0.365,0.999c-0.285-0.136-0.695-0.273-1.24-0.273
		c-1.902,0-3.096,1.874-3.096,3.597c0,1.181,0.617,1.952,1.813,1.952c0.742,0,1.316-0.228,1.693-0.409L182.619,44.651z"/>
	<path fill="#fff" d="M185.383,37.619l0.727,3.949c0.166,0.828,0.258,1.376,0.332,1.917h0.033
		c0.193-0.467,0.404-0.98,0.783-1.781l1.859-4.085h1.33l-2.734,5.564c-0.789,1.587-1.527,2.872-2.527,3.842
		c-0.814,0.828-1.705,1.179-2.131,1.268l-0.299-1.072c0.316-0.123,0.844-0.319,1.344-0.712c0.482-0.378,1.012-0.965,1.406-1.677
		c0.059-0.122,0.059-0.212,0.043-0.334l-1.463-6.879H185.383z"/>
	<path fill="#fff" d="M198.213,11.918c-3.285,0-5.959-2.674-5.959-5.958c0-3.285,2.674-5.96,5.959-5.96
		c3.287,0,5.959,2.675,5.959,5.96C204.172,9.244,201.5,11.918,198.213,11.918z M198.213,0.745c-2.875,0-5.213,2.339-5.213,5.215
		c0,2.874,2.338,5.213,5.213,5.213s5.215-2.339,5.215-5.213C203.428,3.084,201.088,0.745,198.213,0.745z"/>
	<path fill="#fff" d="M199.703,8.938c-0.002-0.982-0.586-1.867-1.488-2.256l-0.746-0.319v2.575h-0.746V3.352
		c0-0.205,0.166-0.372,0.373-0.372h1.676c0.924,0,1.676,0.752,1.676,1.676c0,0.824-0.598,1.512-1.381,1.65
		c0.854,0.588,1.381,1.566,1.381,2.633H199.703L199.703,8.938z M197.469,5.586h1.303c0.516,0,0.932-0.416,0.932-0.931
		c0-0.514-0.416-0.931-0.932-0.931h-1.303V5.586z"/>
</g>
</svg>
