<?xml version="1.0" encoding="UTF-8"?>
<svg width="116px" height="28px" viewBox="0 0 116 28" version="1.1" xmlns="http://www.w3.org/2000/svg" xmlns:xlink="http://www.w3.org/1999/xlink">
    <title>Group 6 Copy 5</title>
    <defs>
        <linearGradient x1="0%" y1="35.7304525%" x2="100%" y2="35.7304525%" id="linearGradient-1">
            <stop stop-color="#1C84A6" offset="0%"></stop>
            <stop stop-color="#386BB2" offset="25.2712057%"></stop>
            <stop stop-color="#7356A3" offset="49.4423174%"></stop>
            <stop stop-color="#903B94" offset="71.6984241%"></stop>
            <stop stop-color="#C54961" offset="100%"></stop>
        </linearGradient>
    </defs>
    <g id="Page-1" stroke="none" stroke-width="1" fill="none" fill-rule="evenodd">
        <g id="Logos-with-Pipe" transform="translate(-494.000000, -300.000000)">
            <g id="Group-3" transform="translate(494.000000, 300.000000)">
                <rect id="Rectangle-Copy-2" fill="#555555" x="76" y="0" width="1" height="24" rx="0.5"></rect>
                <path d="M90.8245943,23.8 C91.6115273,23.8 92.3339576,23.6729282 92.9918851,23.4187845 C93.6498127,23.1646409 94.2174365,22.8183702 94.6947566,22.3799724 C95.1720766,21.9415746 95.5429671,21.4301105 95.8074282,20.8455801 C96.0718893,20.2610497 96.2041199,19.6320442 96.2041199,18.9585635 L96.2041199,18.9585635 L96.2041199,17.7958564 C96.2041199,17.3892265 96.0718893,17.0366022 95.8074282,16.7379834 C95.5429671,16.4393646 95.159176,16.2900552 94.6560549,16.2900552 L94.6560549,16.2900552 L91.8501873,16.2900552 C91.5663754,16.2900552 91.3277154,16.3821823 91.1342072,16.5664365 C90.9406991,16.7506906 90.8439451,16.9825967 90.8439451,17.2621547 C90.8439451,17.5290055 90.9406991,17.7609116 91.1342072,17.9578729 C91.3277154,18.1548343 91.5663754,18.2533149 91.8501873,18.2533149 L91.8501873,18.2533149 L94.1722846,18.2533149 L94.1722846,19.168232 C94.1722846,19.5367403 94.0948814,19.883011 93.9400749,20.2070442 C93.7852684,20.5310773 93.5659592,20.8138122 93.2821473,21.0552486 C92.9983354,21.2966851 92.6532459,21.4872928 92.2468789,21.6270718 C91.8405119,21.7668508 91.3857678,21.8367403 90.8826467,21.8367403 C90.3537245,21.8367403 89.8731794,21.7509669 89.4410112,21.5794199 C89.0088431,21.4078729 88.6315023,21.1632597 88.3089888,20.8455801 C87.9864752,20.5279006 87.7252393,20.1530387 87.5252809,19.7209945 C87.3253225,19.2889503 87.1995422,18.8124309 87.1479401,18.2914365 C87.0705368,17.4019337 87.0705368,16.4933702 87.1479401,15.5657459 C87.1995422,15.0320442 87.3220974,14.5459945 87.5156055,14.1075967 C87.7091136,13.6691989 87.9638993,13.2879834 88.2799625,12.9639503 C88.5960258,12.6399171 88.9701415,12.3889503 89.4023096,12.2110497 C89.8344777,12.0331492 90.3150229,11.9441989 90.8439451,11.9441989 C91.5921764,11.9441989 92.2307532,12.1189227 92.7596754,12.4683702 C93.2885976,12.8178177 93.7014149,13.278453 93.9981273,13.8502762 C94.0884311,13.9900552 94.2077611,14.1107735 94.3561174,14.2124309 C94.5044736,14.3140884 94.6754057,14.3649171 94.8689139,14.3649171 C95.1398252,14.3649171 95.3752601,14.2664365 95.5752185,14.0694751 C95.7751769,13.8725138 95.8751561,13.6469613 95.8751561,13.3928177 C95.8751561,13.1895028 95.8235539,13.0052486 95.7203496,12.8400552 C95.2688306,11.9632597 94.6205784,11.2707182 93.775593,10.7624309 C92.9306076,10.2541436 91.9469413,10 90.8245943,10 C90.0247607,10 89.2862047,10.139779 88.6089263,10.419337 C87.9316479,10.698895 87.3414482,11.0801105 86.8383271,11.5629834 C86.335206,12.0458564 85.928839,12.6145028 85.619226,13.2689227 C85.309613,13.9233425 85.1290054,14.6254144 85.0774032,15.3751381 C84.9741989,16.3790055 84.9741989,17.3955801 85.0774032,18.4248619 C85.1290054,19.1872928 85.309613,19.8957182 85.619226,20.5501381 C85.928839,21.204558 86.335206,21.7732044 86.8383271,22.2560773 C87.3414482,22.7389503 87.9316479,23.116989 88.6089263,23.3901934 C89.2862047,23.6633978 90.0247607,23.8 90.8245943,23.8 Z M101.912609,23.7809392 C102.41573,23.7809392 102.883375,23.7428177 103.315543,23.6665746 C103.747711,23.5903315 104.134727,23.4950276 104.476592,23.380663 C104.818456,23.2662983 105.111943,23.1487569 105.357054,23.0280387 C105.602164,22.9073204 105.795672,22.8024862 105.937578,22.7135359 C106.079484,22.6118785 106.176238,22.5070442 106.22784,22.3990331 C106.279442,22.2910221 106.305243,22.1480663 106.305243,21.9701657 L106.305243,21.9701657 L106.305243,17.0143646 C106.305243,15.7309392 105.947253,14.7937845 105.231273,14.2029006 C104.515293,13.6120166 103.538077,13.3165746 102.299625,13.3165746 C101.706201,13.3165746 101.135352,13.3769337 100.587079,13.4976519 C100.038806,13.6183702 99.6227632,13.7486188 99.3389513,13.8883978 C99.0809405,14.0027624 98.9035581,14.1457182 98.806804,14.3172652 C98.7100499,14.4888122 98.6616729,14.6571823 98.6616729,14.8223757 C98.6616729,15.1146409 98.7906783,15.3497238 99.0486891,15.5276243 C99.3067,15.7055249 99.6485643,15.7245856 100.074282,15.5848066 C100.345193,15.4831492 100.664482,15.3878453 101.032147,15.298895 C101.399813,15.2099448 101.783604,15.1654696 102.183521,15.1654696 C102.944653,15.1654696 103.492926,15.3116022 103.82834,15.6038674 C104.163754,15.8961326 104.331461,16.3662983 104.331461,17.0143646 L104.331461,17.0143646 L104.331461,17.6433702 C103.879942,17.5417127 103.47035,17.4622928 103.102684,17.4051105 C102.735019,17.3479282 102.325427,17.319337 101.873908,17.319337 C101.190179,17.319337 100.603204,17.4051105 100.112984,17.5766575 C99.6227632,17.7482044 99.2163962,17.9801105 98.8938826,18.2723757 C98.5713691,18.5646409 98.3327091,18.9013812 98.1779026,19.2825967 C98.0230961,19.6638122 97.9456929,20.0640884 97.9456929,20.4834254 C97.9456929,20.9535912 98.0295464,21.3888122 98.1972534,21.7890884 C98.3649605,22.1893646 98.6132959,22.5388122 98.9422597,22.8374309 C99.2712235,23.1360497 99.6840408,23.3679558 100.180712,23.5331492 C100.677382,23.6983425 101.254682,23.7809392 101.912609,23.7809392 Z M102.086767,22.0082873 C101.390137,22.0082873 100.861215,21.8716851 100.5,21.5984807 C100.138785,21.3252762 99.9581773,20.9281768 99.9581773,20.4071823 C99.9581773,19.9497238 100.14846,19.5970994 100.529026,19.3493094 C100.909592,19.1015193 101.396588,18.9776243 101.990012,18.9776243 C102.428631,18.9776243 102.822097,19.0062155 103.170412,19.0633978 C103.518727,19.1205801 103.905743,19.2 104.331461,19.3016575 L104.331461,19.3016575 L104.331461,21.4174033 C104.228256,21.4936464 103.996047,21.6111878 103.634831,21.7700276 C103.273616,21.9288674 102.757595,22.0082873 102.086767,22.0082873 Z M112.110487,23.7809392 C112.66521,23.7809392 113.181232,23.7078729 113.658552,23.5617403 C114.135872,23.4156077 114.548689,23.2059392 114.897004,22.9327348 C115.245318,22.6595304 115.51623,22.3291436 115.709738,21.9415746 C115.903246,21.5540055 116,21.1187845 116,20.6359116 C116,19.1618785 115.090512,18.2024862 113.271536,17.7577348 L113.271536,17.7577348 L111.762172,17.4146409 C111.259051,17.2875691 110.910737,17.1414365 110.717228,16.9762431 C110.52372,16.8110497 110.426966,16.6013812 110.426966,16.3472376 C110.426966,15.5593923 111.007491,15.1654696 112.168539,15.1654696 C112.800666,15.1654696 113.394091,15.3243094 113.948814,15.641989 C114.193924,15.7690608 114.439035,15.8230663 114.684145,15.8040055 C114.929255,15.7849448 115.129213,15.6864641 115.28402,15.5085635 C115.425926,15.3433702 115.500104,15.1305249 115.506554,14.8700276 C115.513005,14.6095304 115.406575,14.3903315 115.187266,14.2124309 C114.851852,13.9455801 114.422909,13.729558 113.900437,13.5643646 C113.377965,13.3991713 112.832917,13.3165746 112.265293,13.3165746 C111.723471,13.3165746 111.22035,13.3864641 110.75593,13.5262431 C110.291511,13.6660221 109.888369,13.869337 109.546504,14.1361878 C109.20464,14.4030387 108.936954,14.7270718 108.743446,15.1082873 C108.549938,15.4895028 108.453184,15.9151934 108.453184,16.3853591 C108.453184,17.1604972 108.707969,17.7767956 109.217541,18.2342541 C109.727112,18.6917127 110.407615,19.028453 111.259051,19.2444751 C111.439659,19.2953039 111.58479,19.3334254 111.694444,19.3588398 C111.804099,19.3842541 111.900853,19.4064917 111.984707,19.4255525 C112.06856,19.4446133 112.158864,19.463674 112.255618,19.4827348 C112.352372,19.5017956 112.484603,19.5303867 112.65231,19.5685083 C113.14253,19.6828729 113.48762,19.8290055 113.687578,20.0069061 C113.887536,20.1848066 113.987516,20.4135359 113.987516,20.6930939 C113.987516,21.0616022 113.839159,21.3633978 113.542447,21.5984807 C113.245734,21.8335635 112.800666,21.951105 112.207241,21.951105 C111.600916,21.951105 111.110695,21.8812155 110.736579,21.7414365 C110.362464,21.6016575 110.020599,21.4237569 109.710986,21.2077348 C109.452975,21.0425414 109.201415,20.9790055 108.956305,21.0171271 C108.711194,21.0552486 108.511236,21.1823204 108.356429,21.3983425 C108.214524,21.5889503 108.162921,21.811326 108.201623,22.0654696 C108.240325,22.3196133 108.356429,22.5292818 108.549938,22.6944751 C108.949854,23.0248619 109.440075,23.2885359 110.020599,23.4854972 C110.601124,23.6824586 111.297753,23.7809392 112.110487,23.7809392 Z" id="Gas" fill="#555555" fill-rule="nonzero"></path>
                <path d="M6.6698565,24 C7.5157895,24 8.3020734,23.9343365 9.0287081,23.8030096 C9.7553429,23.6716826 10.4060606,23.5075239 10.9808612,23.3105335 C11.5556619,23.1135431 12.0491228,22.9110807 12.461244,22.7031464 C12.8733652,22.495212 13.1987241,22.3146375 13.4373206,22.1614227 C13.6759171,21.9863201 13.8385965,21.8057456 13.9253589,21.619699 C14.0121212,21.4336525 14.0555024,21.1874145 14.0555024,20.880985 L14.0555024,20.880985 L14.0555024,12.3447332 C14.0555024,10.1340629 13.4535885,8.5198358 12.2497608,7.502052 C11.045933,6.4842681 9.4028708,5.9753762 7.3205742,5.9753762 C6.322807,5.9753762 5.3629984,6.0793434 4.4411483,6.2872777 C3.5192982,6.495212 2.8197767,6.7195622 2.3425837,6.9603283 C1.90877193,7.1573187 1.61052632,7.4035568 1.44784689,7.6990424 C1.28516746,7.994528 1.20382775,8.2845417 1.20382775,8.5690834 C1.20382775,9.0725034 1.42073365,9.4774282 1.85454545,9.7838577 C2.2883573,10.0902873 2.8631579,10.123119 3.5789474,9.8823529 C4.0344498,9.7072503 4.5712919,9.5430917 5.1894737,9.3898769 C5.8076555,9.2366621 6.4529506,9.1600547 7.1253589,9.1600547 C8.4051037,9.1600547 9.3269537,9.4117647 9.8909091,9.9151847 C10.4548644,10.4186047 10.7368421,11.2284542 10.7368421,12.3447332 L10.7368421,12.3447332 L10.7368421,13.4281806 C9.9776715,13.253078 9.2889952,13.1162791 8.6708134,13.0177839 C8.0526316,12.9192886 7.3639553,12.870041 6.6047847,12.870041 C5.4551834,12.870041 4.4682616,13.0177839 3.6440191,13.3132695 C2.8197767,13.6087551 2.1365231,14.0082079 1.59425837,14.5116279 C1.05199362,15.0150479 0.6507177,15.5950752 0.39043062,16.25171 C0.13014354,16.9083447 0,17.5978112 0,18.3201094 C0,19.129959 0.14098884,19.879617 0.42296651,20.5690834 C0.70494418,21.2585499 1.12248804,21.8604651 1.67559809,22.374829 C2.2287081,22.8891929 2.922807,23.2886457 3.7578947,23.5731874 C4.5929825,23.8577291 5.5636364,24 6.6698565,24 Z M6.9626794,20.9466484 C5.7913876,20.9466484 4.9020734,20.7113543 4.2947368,20.2407661 C3.6874003,19.7701778 3.3837321,19.0861833 3.3837321,18.1887825 C3.3837321,17.4008208 3.7036683,16.7934337 4.3435407,16.3666211 C4.9834131,15.9398085 5.8022329,15.7264022 6.8,15.7264022 C7.5374801,15.7264022 8.1990431,15.7756498 8.784689,15.874145 C9.3703349,15.9726402 10.0210526,16.1094391 10.7368421,16.2845417 L10.7368421,16.2845417 L10.7368421,19.9288646 C10.5633174,20.0601915 10.1728868,20.2626539 9.5655502,20.5362517 C8.9582137,20.8098495 8.0905901,20.9466484 6.9626794,20.9466484 Z M22.937799,24 C23.7186603,24 24.4669856,23.9233926 25.1827751,23.7701778 C25.8985646,23.6169631 26.5438596,23.4309166 27.1186603,23.2120383 C27.6934609,22.9931601 28.1923445,22.7688098 28.615311,22.5389877 C29.0382775,22.3091655 29.3582137,22.1176471 29.5751196,21.9644323 C29.8354067,21.7893297 30.0035088,21.6032832 30.0794258,21.4062927 C30.1553429,21.2093023 30.1933014,20.9575923 30.1933014,20.6511628 L30.1933014,20.6511628 L30.1933014,2.002736 C30.1933014,1.49931601 30.030622,1.07797538 29.7052632,0.73871409 C29.3799043,0.3994528 28.9677831,0.22982216 28.4688995,0.22982216 C27.9917065,0.22982216 27.585008,0.3994528 27.2488038,0.73871409 C26.9125997,1.07797538 26.7444976,1.49931601 26.7444976,2.002736 L26.7444976,2.002736 L26.7444976,6.9274966 C26.2022329,6.6867305 25.5515152,6.4678523 24.7923445,6.2708618 C24.0331738,6.0738714 23.2631579,5.9753762 22.4822967,5.9753762 C20.3783094,5.9753762 18.7352472,6.5608755 17.55311,7.7318741 C16.3709729,8.9028728 15.6931419,10.5170999 15.5196172,12.5745554 C15.4979266,12.880985 15.4816587,13.2366621 15.4708134,13.6415869 C15.4599681,14.0465116 15.4545455,14.4678523 15.4545455,14.9056088 C15.4545455,15.3433653 15.4599681,15.7701778 15.4708134,16.1860465 C15.4816587,16.6019152 15.4979266,16.9521204 15.5196172,17.2366621 C15.6063796,18.2435021 15.8341308,19.1627907 16.2028708,19.994528 C16.5716108,20.8262654 17.0759171,21.5376197 17.7157895,22.128591 C18.3556619,22.7195622 19.1094099,23.1792066 19.9770335,23.5075239 C20.8446571,23.8358413 21.8315789,24 22.937799,24 Z M23.0028708,20.6511628 C20.508453,20.6511628 19.1636364,19.370725 18.9684211,16.8098495 C18.9467305,16.5471956 18.9304625,16.246238 18.9196172,15.9069767 C18.9087719,15.5677155 18.9033493,15.2175103 18.9033493,14.8563611 C18.9033493,14.495212 18.9087719,14.1450068 18.9196172,13.8057456 C18.9304625,13.4664843 18.9467305,13.1874145 18.9684211,12.9685363 C19.0334928,11.7647059 19.369697,10.8563611 19.9770335,10.2435021 C20.58437,9.630643 21.5062201,9.3242134 22.7425837,9.3242134 C23.5885167,9.3242134 24.3802233,9.4391245 25.1177033,9.6689466 C25.8551834,9.8987688 26.3974482,10.123119 26.7444976,10.3419973 L26.7444976,10.3419973 L26.7444976,19.4692202 C26.5709729,19.6005472 26.3486443,19.7318741 26.077512,19.8632011 C25.8063796,19.994528 25.4972887,20.120383 25.1502392,20.2407661 C24.8031898,20.3611491 24.4452951,20.4596443 24.076555,20.5362517 C23.707815,20.6128591 23.3499203,20.6511628 23.0028708,20.6511628 Z M38.2947368,24 C39.1406699,24 39.9269537,23.9343365 40.6535885,23.8030096 C41.3802233,23.6716826 42.030941,23.5075239 42.6057416,23.3105335 C43.1805423,23.1135431 43.6740032,22.9110807 44.0861244,22.7031464 C44.4982456,22.495212 44.8236045,22.3146375 45.062201,22.1614227 C45.3007974,21.9863201 45.4634769,21.8057456 45.5502392,21.619699 C45.6370016,21.4336525 45.6803828,21.1874145 45.6803828,20.880985 L45.6803828,20.880985 L45.6803828,12.3447332 C45.6803828,10.1340629 45.0784689,8.5198358 43.8746411,7.502052 C42.6708134,6.4842681 41.0277512,5.9753762 38.9454545,5.9753762 C37.9476874,5.9753762 36.9878788,6.0793434 36.0660287,6.2872777 C35.1441786,6.495212 34.4446571,6.7195622 33.9674641,6.9603283 C33.5336523,7.1573187 33.2354067,7.4035568 33.0727273,7.6990424 C32.9100478,7.994528 32.8287081,8.2845417 32.8287081,8.5690834 C32.8287081,9.0725034 33.045614,9.4774282 33.4794258,9.7838577 C33.9132376,10.0902873 34.4880383,10.123119 35.2038278,9.8823529 C35.6593301,9.7072503 36.1961722,9.5430917 36.8143541,9.3898769 C37.4325359,9.2366621 38.0778309,9.1600547 38.7502392,9.1600547 C40.0299841,9.1600547 40.9518341,9.4117647 41.5157895,9.9151847 C42.0797448,10.4186047 42.3617225,11.2284542 42.3617225,12.3447332 L42.3617225,12.3447332 L42.3617225,13.4281806 C41.6025518,13.253078 40.9138756,13.1162791 40.2956938,13.0177839 C39.677512,12.9192886 38.9888357,12.870041 38.2296651,12.870041 C37.0800638,12.870041 36.0931419,13.0177839 35.2688995,13.3132695 C34.4446571,13.6087551 33.7614035,14.0082079 33.2191388,14.5116279 C32.676874,15.0150479 32.2755981,15.5950752 32.015311,16.25171 C31.7550239,16.9083447 31.6248804,17.5978112 31.6248804,18.3201094 C31.6248804,19.129959 31.7658692,19.879617 32.0478469,20.5690834 C32.3298246,21.2585499 32.7473684,21.8604651 33.3004785,22.374829 C33.8535885,22.8891929 34.5476874,23.2886457 35.3827751,23.5731874 C36.2178628,23.8577291 37.1885167,24 38.2947368,24 Z M38.5875598,20.9466484 C37.4162679,20.9466484 36.5269537,20.7113543 35.9196172,20.2407661 C35.3122807,19.7701778 35.0086124,19.0861833 35.0086124,18.1887825 C35.0086124,17.4008208 35.3285486,16.7934337 35.9684211,16.3666211 C36.6082935,15.9398085 37.4271132,15.7264022 38.4248804,15.7264022 C39.1623604,15.7264022 39.8239234,15.7756498 40.4095694,15.874145 C40.9952153,15.9726402 41.645933,16.1094391 42.3617225,16.2845417 L42.3617225,16.2845417 L42.3617225,19.9288646 C42.1881978,20.0601915 41.7977671,20.2626539 41.1904306,20.5362517 C40.5830941,20.8098495 39.7154705,20.9466484 38.5875598,20.9466484 Z M60.4516746,23.8030096 C60.9505582,23.8030096 61.3626794,23.6333789 61.6880383,23.2941176 C62.0133971,22.9548564 62.1760766,22.5335157 62.1760766,22.0300958 L62.1760766,22.0300958 L62.1760766,12.9028728 C62.1760766,10.6703146 61.5795853,8.9575923 60.3866029,7.7647059 C59.1936204,6.5718194 57.414992,5.9753762 55.0507177,5.9753762 C54.2047847,5.9753762 53.4185008,6.0355677 52.691866,6.1559508 C51.9652313,6.2763338 51.3199362,6.4295486 50.7559809,6.6155951 C50.1920255,6.8016416 49.7039872,6.998632 49.291866,7.2065663 C48.8797448,7.4145007 48.554386,7.6060192 48.3157895,7.7811218 C48.077193,7.9562244 47.9036683,8.1367989 47.7952153,8.3228454 C47.6867624,8.5088919 47.6325359,8.7770178 47.6325359,9.127223 L47.6325359,9.127223 L47.6325359,22.0300958 C47.6325359,22.5335157 47.8060606,22.9548564 48.15311,23.2941176 C48.5001595,23.6333789 48.9014354,23.8030096 49.3569378,23.8030096 C49.8558214,23.8030096 50.2679426,23.6333789 50.5933014,23.2941176 C50.9186603,22.9548564 51.0813397,22.5335157 51.0813397,22.0300958 L51.0813397,22.0300958 L51.0813397,10.2435021 C51.4500797,10.002736 51.9869219,9.7893297 52.691866,9.6032832 C53.3968102,9.4172367 54.1505582,9.3242134 54.95311,9.3242134 C55.4519936,9.3242134 55.9291866,9.3953488 56.384689,9.5376197 C56.8401914,9.6798906 57.2414673,9.9042408 57.5885167,10.2106703 C57.9355662,10.5170999 58.2121212,10.9056088 58.4181818,11.376197 C58.6242424,11.8467852 58.7272727,12.4103967 58.7272727,13.0670315 L58.7272727,13.0670315 L58.7272727,22.0300958 C58.7272727,22.5335157 58.9007974,22.9548564 59.2478469,23.2941176 C59.5948963,23.6333789 59.9961722,23.8030096 60.4516746,23.8030096 Z M66.0803828,3.9398085 C66.6226475,3.9398085 67.0781499,3.7428181 67.44689,3.3488372 C67.81563,2.9548564 68,2.4842681 68,1.9370725 C68,1.38987688 67.81563,0.93023256 67.44689,0.55813953 C67.0781499,0.18604651 66.6226475,0 66.0803828,0 C65.5164274,0 65.0500797,0.18604651 64.6813397,0.55813953 C64.3125997,0.93023256 64.1282297,1.38987688 64.1282297,1.9370725 C64.1282297,2.4842681 64.3125997,2.9548564 64.6813397,3.3488372 C65.0500797,3.7428181 65.5164274,3.9398085 66.0803828,3.9398085 Z M66.0803828,23.8030096 C66.5792663,23.8030096 66.9913876,23.6333789 67.3167464,23.2941176 C67.6421053,22.9548564 67.8047847,22.5335157 67.8047847,22.0300958 L67.8047847,22.0300958 L67.8047847,7.9781122 C67.8047847,7.4746922 67.6366826,7.0533516 67.3004785,6.7140903 C66.9642743,6.374829 66.5575758,6.2051984 66.0803828,6.2051984 C65.5814992,6.2051984 65.169378,6.374829 64.8440191,6.7140903 C64.5186603,7.0533516 64.3559809,7.4746922 64.3559809,7.9781122 L64.3559809,7.9781122 L64.3559809,22.0300958 C64.3559809,22.5335157 64.5295056,22.9548564 64.876555,23.2941176 C65.2236045,23.6333789 65.6248804,23.8030096 66.0803828,23.8030096 Z" id="agrow" fill="url(#linearGradient-1)" fill-rule="nonzero"></path>
            </g>
        </g>
    </g>
</svg>