<svg id="Layer_1" data-name="Layer 1" xmlns="http://www.w3.org/2000/svg" viewBox="0 0 24 24"><defs><style>.cls-1,.cls-2,.cls-3{fill:none;stroke:#000;}.cls-1,.cls-2{stroke-linecap:round;}.cls-1{stroke-linejoin:round;}.cls-2,.cls-3{stroke-miterlimit:10;}</style></defs><path class="cls-1" d="M14.54,18.32a9.28,9.28,0,0,0,2.31-3c.08-.2.15-.4.22-.6"/><path class="cls-1" d="M6.26,19.26c-3.86-.68-4.57-3.57-4.57-3.57A6,6,0,0,1,5.3,8.56c4.76-2.22,4-7.79,4-7.79A24.77,24.77,0,0,1,16,7.84"/><line class="cls-1" x1="5.93" y1="21.07" x2="13.1" y2="21.07"/><line class="cls-1" x1="3.35" y1="22.79" x2="15.68" y2="22.79"/><line class="cls-2" x1="7.34" y1="11.2" x2="11.69" y2="11.2"/><line class="cls-2" x1="7.34" y1="12.9" x2="11.69" y2="12.9"/><line class="cls-2" x1="7.34" y1="15.12" x2="10.43" y2="18.23"/><path class="cls-3" d="M8.54,11.2a1.94,1.94,0,0,1,1.9,2h0a1.93,1.93,0,0,1-1.9,2H7.34"/><path class="cls-1" d="M20.62,11.74a2.57,2.57,0,0,1-.17.63,3.05,3.05,0,0,1-.27.61,4.07,4.07,0,0,1-.67.81,3.25,3.25,0,0,1-1,.65,3.21,3.21,0,0,1-1.4.27A3.69,3.69,0,0,1,16,14.5,3.52,3.52,0,0,1,16,7.84a3.56,3.56,0,0,1,2.3,0,2.93,2.93,0,0,1,.71.35A3.54,3.54,0,0,1,20.62,11.74Z"/><path class="cls-1" d="M22.22,19.21a.64.64,0,0,1-.87-.19l-.48-.75-2-3.18-.35-.55a.18.18,0,0,1,0-.1,3.25,3.25,0,0,0,1-.65.13.13,0,0,1,.06.07l.46.74,0,0,1.14,1.79,1.23,1.94A.64.64,0,0,1,22.22,19.21Z"/></svg>