<svg id="Layer_1" data-name="Layer 1" xmlns="http://www.w3.org/2000/svg" width="24" height="24" viewBox="0 0 24 24">
  <defs>
    <style>
      .cls-1 {
        fill: none;
        stroke: #000;
        stroke-linecap: round;
        stroke-linejoin: round;
      }
    </style>
  </defs>
  <g>
    <g>
      <path class="cls-1" d="M7.6,8.9a2.8,2.8,0,0,1,2.5-1.6A2.7,2.7,0,0,1,12.8,10c0,1.4-1.7,2.6-3.2,2.6v1.5"/>
      <line class="cls-1" x1="9.6" y1="16.4" x2="9.6" y2="16.4"/>
    </g>
    <path class="cls-1" d="M17.8,5V15.8h-.4a3.7,3.7,0,0,0-3.8,3.7c0,.2.1.4.1.6a3.7,3.7,0,0,0,3.4,3.1H3.8a.9.9,0,0,1-.9-.9V1.7A.9.9,0,0,1,3.8.8h9.8Z"/>
    <path id="Path_19" data-name="Path 19" class="cls-1" d="M13.6.8,17.8,5H14.6a1.1,1.1,0,0,1-1-1h0Z"/>
    <g>
      <path class="cls-1" d="M21.1,19.5a3.7,3.7,0,0,1-3.7,3.7h-.3a3.7,3.7,0,0,1-3.4-3.1c0-.2-.1-.4-.1-.6a3.7,3.7,0,0,1,3.8-3.7h.5A3.8,3.8,0,0,1,21.1,19.5Z"/>
      <g>
        <line class="cls-1" x1="16" y1="19.5" x2="19.2" y2="19.5"/>
        <line class="cls-1" x1="17.6" y1="17.9" x2="17.6" y2="21.1"/>
      </g>
    </g>
  </g>
</svg>
