<svg id="Layer_1" data-name="Layer 1" xmlns="http://www.w3.org/2000/svg" width="24" height="24" viewBox="0 0 24 24">
  <defs>
    <style>
      .cls-1, .cls-2, .cls-3 {
        fill: none;
        stroke-linecap: round;
      }

      .cls-1 {
        stroke: #000;
      }

      .cls-1, .cls-3 {
        stroke-linejoin: round;
      }

      .cls-2, .cls-3 {
        stroke: #000102;
      }

      .cls-2 {
        stroke-miterlimit: 10;
      }
    </style>
  </defs>
  <g>
    <path class="cls-1" d="M13.9,14l.3.4c.3.2.8,0,1.2-2.2a3.3,3.3,0,0,1,.8,4.5A3.2,3.2,0,0,0,17.6,15a4.8,4.8,0,0,0-.9-4.2,9.8,9.8,0,0,0-1.8-2s.3,2.4-1.4,3.3a2.7,2.7,0,0,0-1.3,3.1,2,2,0,0,0,1.6,1.5c-.1-.2-1.3-1.9.1-2.7l.3.4c.3.2.8,0,1.2-2.2a3.3,3.3,0,0,1,.8,4.5"/>
    <g>
      <path class="cls-1" d="M16.7,18.9v2.6a1.3,1.3,0,0,1-1.3,1.3H2.9a1.3,1.3,0,0,1-1.3-1.3V4A1.3,1.3,0,0,1,2.9,2.7H6.3"/>
      <path class="cls-1" d="M12.2,2.7h3.2A1.3,1.3,0,0,1,16.7,4V6.4"/>
      <rect class="cls-1" x="6.3" y="1.2" width="5.9" height="3.01" rx="0.9"/>
    </g>
    <g>
      <path class="cls-2" d="M21.3,14.2a6.3,6.3,0,0,1-10.9,2.7"/>
      <path class="cls-2" d="M9,11.3a6.4,6.4,0,0,1,6.2-4.9A6.6,6.6,0,0,1,20,8.6"/>
      <polyline class="cls-3" points="11.2 10.3 9 11.3 8.1 9.1"/>
      <polyline class="cls-3" points="22.4 16.4 21.3 14.2 19.2 15.3"/>
    </g>
  </g>
</svg>
